<svg id="Layer_2" data-name="Layer 2" xmlns="http://www.w3.org/2000/svg" viewBox="0 0 45.27 48.77"><defs><style>.cls-1,.cls-2,.cls-3,.cls-4,.cls-5,.cls-6{fill:none;stroke-linecap:round;stroke-linejoin:round;}.cls-1,.cls-2,.cls-3,.cls-4,.cls-5{stroke:#000;stroke-width:0.2px;}.cls-2{stroke-dasharray:0.64 0.64;}.cls-3{stroke-dasharray:0.51 0.51;}.cls-4{stroke-dasharray:0.5 0.5;}.cls-5{stroke-dasharray:0.6;}.cls-6{stroke:#231f20;stroke-width:0.2px;}</style></defs><title>coding</title><path class="cls-1" d="M22.7,8.15a2.31,2.31,0,0,0-.51-.86,2.24,2.24,0,0,0-1.08-.46" transform="translate(-3.04 -0.49)"/><path class="cls-1" d="M16.26,16.58a18.75,18.75,0,0,0,2.79.77,1,1,0,0,0,.92-.48,19.4,19.4,0,0,0,1-2.57c.15-.25.19-.11.79-.26.44-.12-.25-1.08-.28-1.52s.41-1.85.34-2.77A4.12,4.12,0,0,0,20.94,7" transform="translate(-3.04 -0.49)"/><path class="cls-1" d="M21.41,10.41a2.75,2.75,0,0,0-.89-.66L20,9.62a2,2,0,0,0-.42,0,1.06,1.06,0,0,0-.33,0,8.9,8.9,0,0,1,1.39.27,3.7,3.7,0,0,1,.51.4C21.37,10.52,21.41,10.41,21.41,10.41Z" transform="translate(-3.04 -0.49)"/><line class="cls-1" x1="17.81" y1="10.36" x2="17.64" y2="10.9"/><line class="cls-1" x1="18.07" y1="10.95" x2="16.28" y2="10.36"/><line class="cls-1" x1="18.12" y1="11.15" x2="16.28" y2="10.36"/><path class="cls-1" d="M20.68,11.38s-.25.68-.46.67-.17-.26-.14-.35.14-.48.14-.48Z" transform="translate(-3.04 -0.49)"/><path class="cls-1" d="M19.57,11.56h-.23" transform="translate(-3.04 -0.49)"/><path class="cls-1" d="M20.14,15.64a1,1,0,0,1-1-.48" transform="translate(-3.04 -0.49)"/><path class="cls-1" d="M20.68,6.57s.22-1.93-1.08-2.41" transform="translate(-3.04 -0.49)"/><path class="cls-1" d="M19.6,6.57A2.61,2.61,0,0,0,18,5" transform="translate(-3.04 -0.49)"/><path class="cls-1" d="M18.81,6.42S17.1,4.94,15.58,5.16" transform="translate(-3.04 -0.49)"/><path class="cls-1" d="M16.84,4.46a4.12,4.12,0,0,0-3.19.26,2.46,2.46,0,0,1-2.7,0c.26-.52,1.7-.67,3.3-1.08a6.84,6.84,0,0,1,4.45.74,2.67,2.67,0,0,1,1.52,2" transform="translate(-3.04 -0.49)"/><path class="cls-1" d="M18.55,7.28a4.28,4.28,0,0,0-2.29-1.19c-1.46-.26-2.05,0-2.61-.31" transform="translate(-3.04 -0.49)"/><path class="cls-1" d="M17.62,8.15A12.29,12.29,0,0,0,12.5,6.42C9.87,6.27,11,4.72,11,4.72s-.14-2-1.53-1.94-3.86.67-4.28,2.59a21.08,21.08,0,0,0-.41,7.21c.41,1.94-2,4-1.52,5.36.57,1.69,1.62,1.83,1.62,1.83s-.48-1.6-.24-1.92" transform="translate(-3.04 -0.49)"/><path class="cls-1" d="M17.2,9.31a4,4,0,0,0-1.43-1.16,3,3,0,0,0-1.23-.28" transform="translate(-3.04 -0.49)"/><path class="cls-1" d="M17.06,10.44a7,7,0,0,0-2.52-1.13c-1.22-.18-2.07-2-2.07-2" transform="translate(-3.04 -0.49)"/><path class="cls-1" d="M14.54,12.58S12.39,12,12,11.12,11,9.94,11,9.61" transform="translate(-3.04 -0.49)"/><path class="cls-1" d="M14.33,13.8s-1.57-.59-1.86-1.08" transform="translate(-3.04 -0.49)"/><path class="cls-1" d="M14.77,10.85S12,10,11.24,8.59a5.88,5.88,0,0,1-.51-3.22s-.45,1.35-.56,1.91,0,2.44,0,3.41.67,1.63,1.07,2.48,2.41,1.59,2.41,1.59" transform="translate(-3.04 -0.49)"/><path class="cls-1" d="M10.58,8.15s-.45,2.52.92,3.9" transform="translate(-3.04 -0.49)"/><path class="cls-1" d="M16.8,11.09s-.59-.82-1.07-.65-1,.5-1,1.12a2.47,2.47,0,0,0,.52,1.61c.37.37.81-.1.81-.1" transform="translate(-3.04 -0.49)"/><path class="cls-1" d="M16.43,11.38s-.31-.63-.56-.53a3.93,3.93,0,0,0-.73.53" transform="translate(-3.04 -0.49)"/><path class="cls-1" d="M15.61,11.56a.81.81,0,0,1,.26-.71" transform="translate(-3.04 -0.49)"/><path class="cls-1" d="M15.79,12.66a.53.53,0,0,1-.5-.57" transform="translate(-3.04 -0.49)"/><path class="cls-1" d="M17.06,16.84a2.58,2.58,0,0,0-.8,2s-1.88.67-3.82-1.39A3.54,3.54,0,0,0,14,14.76" transform="translate(-3.04 -0.49)"/><path class="cls-1" d="M7.42,19.89c-.19-.3-.28-.55-.2-.69" transform="translate(-3.04 -0.49)"/><path class="cls-1" d="M10.17,10.69a3.17,3.17,0,0,1-.38,1.36c-1,1.75.55,3.11.81,3.93a3.52,3.52,0,0,1-.78,3.25A1.72,1.72,0,0,0,9,20.28a2.69,2.69,0,0,0,.25,1.5c.23.39-.66-.39-1.35-1.21" transform="translate(-3.04 -0.49)"/><path class="cls-1" d="M10.73,5.37s-.8-1.82-2.2-1.21S6,5.08,5.28,7.28L4.59,9.47" transform="translate(-3.04 -0.49)"/><path class="cls-1" d="M7.66,3.1a2.59,2.59,0,0,1,1.71.4,5.15,5.15,0,0,1,1.11,1.44" transform="translate(-3.04 -0.49)"/><path class="cls-1" d="M10.6,5.78a1.88,1.88,0,0,0-2.3,0,4.93,4.93,0,0,0-1.86,5.32,11.66,11.66,0,0,1-.37,6.76c-.69,1.46-1.58,3.12-.65,4.46s1.89.33,2-.2-.26-1.19-1.55-.41" transform="translate(-3.04 -0.49)"/><path class="cls-1" d="M4.78,22.26s-.87,1.06-.09,1.86a1.85,1.85,0,0,0,1.75.52s-1.25-.31-.78-1.09" transform="translate(-3.04 -0.49)"/><path class="cls-1" d="M44,42.89s2.75.43,3.09,0,1.31-8.14,1-9.2-1.18.42-1.18.42-2.66,5.74-2.74,6.15S44.55,42.15,44,42.89Z" transform="translate(-3.04 -0.49)"/><path class="cls-1" d="M29.12,44.34a4.07,4.07,0,0,1-3,.33s-.37,2.9,0,3,6.41,1.42,7.16,1.42,1.53.14,1.81-.25.48-1-.56-1.73A55.7,55.7,0,0,0,29.12,44.34Z" transform="translate(-3.04 -0.49)"/><path class="cls-1" d="M26.11,44.67s-.85.15-.59-.2c.13-.17.18-1.73.43-3.78.27-2.24.72-5,.72-5s-6.47,7.26-9.46,9a7.63,7.63,0,0,1-6.64.37c-1.5-.78-2.28-4.73-2.32-5.26" transform="translate(-3.04 -0.49)"/><polyline class="cls-1" points="26.07 43.85 26.53 43.85 28.36 32.84"/><line class="cls-1" x1="24.05" y1="34.06" x2="23.63" y2="35.23"/><path class="cls-1" d="M25.65,43.73s-5.75.73-7.64.45" transform="translate(-3.04 -0.49)"/><path class="cls-1" d="M44,42.89l-.32.19s-9.23,1.61-14.06.7" transform="translate(-3.04 -0.49)"/><line class="cls-1" x1="23.19" y1="38.08" x2="21.22" y2="37.83"/><path class="cls-1" d="M18.46,34.73A6.11,6.11,0,0,1,16.25,37,26.51,26.51,0,0,1,12.2,39a12.32,12.32,0,0,1-4.7.69c-.16-.13,0-.7,0-.7" transform="translate(-3.04 -0.49)"/><path class="cls-1" d="M8,38.81s-.77.13-.89,0a20.68,20.68,0,0,0,.45-3.36,70.44,70.44,0,0,0-.08-7.09,15.4,15.4,0,0,1,0-4.67,6.27,6.27,0,0,1,.83-2.55" transform="translate(-3.04 -0.49)"/><path class="cls-1" d="M10.94,21.34a2.64,2.64,0,0,1,2-.91c1.18.08,5.52,5.51,5.52,5.51s-3.78,3.76-6,4.42c0,0-2.47-3.92-2.62-5" transform="translate(-3.04 -0.49)"/><path class="cls-1" d="M25.52,32.42s-3.89,3.67-4.78,3.67-7.29-5.63-7.29-6.17" transform="translate(-3.04 -0.49)"/><path class="cls-1" d="M17.46,26.88s3.15,3.81,3.32,4.57" transform="translate(-3.04 -0.49)"/><path class="cls-1" d="M20.07,32.09c2.3-1.56,2.3-1.2,4.45-2.33" transform="translate(-3.04 -0.49)"/><path class="cls-1" d="M37,30.07s-10,2.72-10.29,3-1.12-4.34-2.1-4.9l8.44-3.58A17.36,17.36,0,0,1,37,30.07Z" transform="translate(-3.04 -0.49)"/><path class="cls-1" d="M24.65,28.12S23.28,26,21.8,25.71l6.68-3.12s3.13-.28,4.61,1.95" transform="translate(-3.04 -0.49)"/><line class="cls-1" x1="33.8" y1="31.13" x2="23.7" y2="33.68"/><line class="cls-1" x1="23.85" y1="32.72" x2="33.84" y2="29.99"/><line class="cls-1" x1="33.84" y1="30.26" x2="23.7" y2="33.1"/><line class="cls-1" x1="33.84" y1="30.69" x2="23.63" y2="33.42"/><polyline class="cls-1" points="21.38 28.68 23.43 34.16 33.8 31.39"/><polyline class="cls-1" points="21.38 28.46 18.5 25.73 19.21 25.35"/><line class="cls-1" x1="23.43" y1="33.1" x2="21.7" y2="28.3"/><line class="cls-1" x1="21.38" y1="28.06" x2="19.06" y2="25.85"/><line class="cls-1" x1="21.09" y1="27.32" x2="19.5" y2="25.85"/><path class="cls-1" d="M16.26,18.86l.94.91a4.87,4.87,0,0,1-5.85-2,3.67,3.67,0,0,1,1.09-.31" transform="translate(-3.04 -0.49)"/><path class="cls-1" d="M10.36,18.49a3.36,3.36,0,0,1,1-.71" transform="translate(-3.04 -0.49)"/><path class="cls-1" d="M23.84,28.4a11.89,11.89,0,0,1-4.12,1.36" transform="translate(-3.04 -0.49)"/><path class="cls-1" d="M17.2,19.77a7.38,7.38,0,0,1,1.92,5.62c-.37,2.8-.49,3.05,0,3.56" transform="translate(-3.04 -0.49)"/><path class="cls-1" d="M17.62,24.91s-2.68,3.24-5.91,4.26" transform="translate(-3.04 -0.49)"/><path class="cls-1" d="M11.58,45.45l.1-.28" transform="translate(-3.04 -0.49)"/><path class="cls-2" d="M11.88,44.56a3.81,3.81,0,0,0,.21-1c0-.45-1.36-1.9-1.9-3.25" transform="translate(-3.04 -0.49)"/><path class="cls-1" d="M10.08,40c0-.1-.05-.2-.07-.29" transform="translate(-3.04 -0.49)"/><path class="cls-1" d="M29.71,43.47" transform="translate(-3.04 -0.49)"/><path class="cls-1" d="M29.71,43.82l-.28.09" transform="translate(-3.04 -0.49)"/><path class="cls-3" d="M28.94,44.05a6.5,6.5,0,0,1-2.77.2" transform="translate(-3.04 -0.49)"/><path class="cls-1" d="M25.92,44.18a1.69,1.69,0,0,1-.27-.12" transform="translate(-3.04 -0.49)"/><path class="cls-1" d="M43.55,40.05s0,.11.07.29" transform="translate(-3.04 -0.49)"/><path class="cls-4" d="M43.71,40.82a5,5,0,0,1,0,1.73" transform="translate(-3.04 -0.49)"/><path class="cls-1" d="M43.65,42.8a2.31,2.31,0,0,1-.1.28" transform="translate(-3.04 -0.49)"/><path class="cls-1" d="M36,29.76s.06-.71-.16-.81-.57-.84-.67-1a1,1,0,0,0-.48-.56c-.38-.2-.57-1-.76-1.06s-.81-.31-.79-.49a1,1,0,0,0-.14-.45" transform="translate(-3.04 -0.49)"/><path class="cls-1" d="M35.15,29.92s.19-.5-.16-.75-.31-.64-.53-.77-.68-.45-.65-.59a1.66,1.66,0,0,0-.38-.93l-.63-.27" transform="translate(-3.04 -0.49)"/><path class="cls-1" d="M33.34,29.17c-.23-.36-.19-.64-.39-.77s-.47-.42-.47-.59a2.85,2.85,0,0,0-.35-.74c-.6-.25-.79-1.41-1-1.23" transform="translate(-3.04 -0.49)"/><path class="cls-1" d="M33,30.48c-.31-.55-.12-1-.5-1a.64.64,0,0,1-.56-.53c0-.14.06-.55-.08-.55" transform="translate(-3.04 -0.49)"/><path class="cls-1" d="M32,30.48c-.26-.27-.37-1.05-.6-1s-.59.09-.55-.49a2.83,2.83,0,0,0-.22-1.14l-.57-.42a5.19,5.19,0,0,1-.39-.51" transform="translate(-3.04 -0.49)"/><path class="cls-1" d="M30.85,30.93c-.16-.34-.17-.72-.39-.78s-.19-.28-.2-.39.33-.46,0-.59-.33-.22-.36-.38.13-.54-.23-.67-.09-.42-.41-.73l-.32-.3" transform="translate(-3.04 -0.49)"/><path class="cls-1" d="M29.12,29.76c-.18-.31.3-.42-.18-.81s-.51-1.56-.51-1.56l-.44-.3" transform="translate(-3.04 -0.49)"/><path class="cls-1" d="M28.94,31.62c-.22-.36-.63-1.9-.79-1.86s-.07-1-.16-1.08-.42-.29-.54-.26-.36-.61-.36-.61" transform="translate(-3.04 -0.49)"/><path class="cls-1" d="M28,31.85c-.26-.3-.1-1.36-.32-1.37s-.25-.9-.25-.9.05-.22-.36-.41-.44-1-.61-1.05" transform="translate(-3.04 -0.49)"/><path class="cls-1" d="M26.48,30.48c-.12.11.3-.3,0-.36s-.25-.2-.25-.2.21-.55,0-.48" transform="translate(-3.04 -0.49)"/><path class="cls-1" d="M31.81,24.54c-.26-.12-.21-.76-.41-.76s-.36-.41-.36-.41a2.52,2.52,0,0,0-.58,0c-.24,0-.63-.39-.79-.23a.94.94,0,0,1-.55.16l-.55-.38" transform="translate(-3.04 -0.49)"/><path class="cls-1" d="M30.26,24.16a5.28,5.28,0,0,0-1.1-.43.32.32,0,0,1-.34,0c-.2-.11-.1-.2-.39-.33a1.18,1.18,0,0,0-.44-.13" transform="translate(-3.04 -0.49)"/><path class="cls-1" d="M29.89,25.5c-.06-.32-.05-.83-.22-.84-.35,0-.89-.12-.89-.12s-.32-.79-.57-.72-.64-.68-.76-.42" transform="translate(-3.04 -0.49)"/><path class="cls-1" d="M28.57,25.5c-.31-.59-.87-1-1.12-1s-.51-.41-.56-.41a2.92,2.92,0,0,1-.41-.31" transform="translate(-3.04 -0.49)"/><path class="cls-1" d="M27.83,26.33c-.35-.58-.41-.84-.38-1s-.86-.31-1-.42-.44,0-.5-.37-.46-.18-.46-.18" transform="translate(-3.04 -0.49)"/><path class="cls-1" d="M26.41,26.61c-.11-.68.22-1.33-.89-1.26-.39,0-.43-.44-.43-.44s-.22-.35-.44-.25" transform="translate(-3.04 -0.49)"/><path class="cls-1" d="M25.11,26.06c-.42-.23-.31-.5-.69-.73s-.36,0-.58-.23" transform="translate(-3.04 -0.49)"/><path class="cls-1" d="M24.29,26.61c-.16.06-.16-.55-.16-.55h-.54" transform="translate(-3.04 -0.49)"/><path class="cls-1" d="M10.36,6.53a4,4,0,0,0-2.31,5.34c1.34,3.84,1.45,5.62.19,6.36-.73.42-1.48-.45-1.48-.45s.91.08,1-.65" transform="translate(-3.04 -0.49)"/><path class="cls-1" d="M5.45,16a3.93,3.93,0,0,0-.86,1.28" transform="translate(-3.04 -0.49)"/><path class="cls-1" d="M7.93,14.52s.14.12.08.49" transform="translate(-3.04 -0.49)"/><path class="cls-1" d="M4.59,11.65c0,.06-.25,1-.7,1.28" transform="translate(-3.04 -0.49)"/><path class="cls-1" d="M11.42,4.26s1-.06.85-1.72A5.32,5.32,0,0,0,12,.59s-2.12,2.89-.73,3.75c0,0,.34-.13.15-1.32" transform="translate(-3.04 -0.49)"/><line class="cls-1" x1="8.05" y1="3.75" x2="7.91" y2="4.23"/><path class="cls-1" d="M11.09,1.89a2.66,2.66,0,0,0-1-1.17S9.4,2.09,9.88,2.77" transform="translate(-3.04 -0.49)"/><path class="cls-1" d="M10.73,3.5a2.06,2.06,0,0,1-.25-1" transform="translate(-3.04 -0.49)"/><path class="cls-5" d="M43.67,41.57c-5.47.53-13.22.22-13.48,0" transform="translate(-3.04 -0.49)"/><path class="cls-5" d="M25.85,41.57s-4.77.46-5,.2" transform="translate(-3.04 -0.49)"/><path class="cls-5" d="M13.45,38.56a8.06,8.06,0,0,0,1.45,2.13c1.55,1.41,9.84-7.38,9.84-7.38" transform="translate(-3.04 -0.49)"/><path class="cls-5" d="M29.12,34.16c.25,1.35-.64,6.06-1.29,10.08" transform="translate(-3.04 -0.49)"/><path class="cls-6" d="M35.3,48.25a1.52,1.52,0,0,1-1,.44A54.88,54.88,0,0,1,26,47.2" transform="translate(-3.04 -0.49)"/><path class="cls-6" d="M47.54,33.44s.35-.07.35.72-.54,7.47-1.13,8.88" transform="translate(-3.04 -0.49)"/><path class="cls-6" d="M32.52,48.49a4.54,4.54,0,0,1,.28-1L28,44.74" transform="translate(-3.04 -0.49)"/><polyline class="cls-6" points="30.3 46.13 28.18 46.13 27.59 44.57 25.9 44.81"/><polyline class="cls-6" points="29.75 47.04 28.96 45.24 26.85 45.35 26.53 43.85"/><path class="cls-6" d="M47.79,35.72H47s-1.12,6-2.7,5.57" transform="translate(-3.04 -0.49)"/><polyline class="cls-1" points="43.91 35.47 42.57 36.6 43.33 37.75 41.73 38.48 42.16 40.37"/><path class="cls-1" d="M46.12,36l.54,1.25-1.55,1,.75,1.49-1.62.58L44,40a15.27,15.27,0,0,1-3.37.14C38.58,40,30.46,39,30.46,39" transform="translate(-3.04 -0.49)"/></svg>