<svg id="Layer_2" data-name="Layer 2" xmlns="http://www.w3.org/2000/svg" viewBox="0 0 45.27 48.77"><defs><style>.cls-1,.cls-2,.cls-3,.cls-4,.cls-5,.cls-6{fill:none;stroke-linecap:round;stroke-linejoin:round;}.cls-1,.cls-2,.cls-3,.cls-4,.cls-5{stroke:#000;stroke-width:0.2px;}.cls-2{stroke-dasharray:0.64 0.64;}.cls-3{stroke-dasharray:0.51 0.51;}.cls-4{stroke-dasharray:0.5 0.5;}.cls-5{stroke-dasharray:0.6;}.cls-6{stroke:#231f20;stroke-width:0.2px;}</style></defs><title>icon</title><path class="cls-1" d="M28.66,8.15a2.31,2.31,0,0,1,.51-.86,2.18,2.18,0,0,1,1.07-.46" transform="translate(-3.04 -0.49)"/><path class="cls-1" d="M35.09,16.58a18.92,18.92,0,0,1-2.78.77,1.05,1.05,0,0,1-.93-.48,18,18,0,0,1-1-2.57c-.15-.25-.19-.11-.8-.26-.43-.12.25-1.08.29-1.52a25.29,25.29,0,0,1-.35-2.77A4.12,4.12,0,0,1,30.41,7" transform="translate(-3.04 -0.49)"/><path class="cls-1" d="M29.94,10.41a2.75,2.75,0,0,1,.89-.66l.54-.13a1.94,1.94,0,0,1,.42,0,1.1,1.1,0,0,1,.34,0,8.69,8.69,0,0,0-1.39.27c-.17.08-.16.12-.52.4S29.94,10.41,29.94,10.41Z" transform="translate(-3.04 -0.49)"/><line class="cls-1" x1="27.45" y1="10.36" x2="27.63" y2="10.9"/><line class="cls-1" x1="27.2" y1="10.95" x2="28.99" y2="10.36"/><line class="cls-1" x1="27.15" y1="11.15" x2="28.99" y2="10.36"/><path class="cls-1" d="M30.67,11.38s.25.68.47.67.16-.26.13-.35-.13-.48-.13-.48Z" transform="translate(-3.04 -0.49)"/><path class="cls-1" d="M31.79,11.56H32" transform="translate(-3.04 -0.49)"/><path class="cls-1" d="M31.21,15.64a1,1,0,0,0,1-.48" transform="translate(-3.04 -0.49)"/><path class="cls-1" d="M30.67,6.57s-.22-1.93,1.09-2.41" transform="translate(-3.04 -0.49)"/><path class="cls-1" d="M31.76,6.57A2.58,2.58,0,0,1,33.32,5" transform="translate(-3.04 -0.49)"/><path class="cls-1" d="M32.54,6.42s1.71-1.48,3.23-1.26" transform="translate(-3.04 -0.49)"/><path class="cls-1" d="M34.51,4.46a4.12,4.12,0,0,1,3.19.26,2.46,2.46,0,0,0,2.7,0c-.25-.52-1.7-.67-3.29-1.08a6.81,6.81,0,0,0-4.45.74,2.67,2.67,0,0,0-1.52,2" transform="translate(-3.04 -0.49)"/><path class="cls-1" d="M32.81,7.28a4.23,4.23,0,0,1,2.28-1.19c1.46-.26,2,0,2.61-.31" transform="translate(-3.04 -0.49)"/><path class="cls-1" d="M33.73,8.15a12.35,12.35,0,0,1,5.12-1.73c2.63-.15,1.55-1.7,1.55-1.7s.14-2,1.54-1.94,3.85.67,4.27,2.59a21.08,21.08,0,0,1,.42,7.21c-.42,1.94,2,4,1.52,5.36-.58,1.69-1.63,1.83-1.63,1.83s.48-1.6.25-1.92" transform="translate(-3.04 -0.49)"/><path class="cls-1" d="M34.16,9.31a3.89,3.89,0,0,1,1.43-1.16,3,3,0,0,1,1.22-.28" transform="translate(-3.04 -0.49)"/><path class="cls-1" d="M34.29,10.44a7.06,7.06,0,0,1,2.52-1.13c1.22-.18,2.07-2,2.07-2" transform="translate(-3.04 -0.49)"/><path class="cls-1" d="M36.81,12.58S39,12,39.33,11.12,40.4,9.94,40.4,9.61" transform="translate(-3.04 -0.49)"/><path class="cls-1" d="M37,13.8s1.56-.59,1.85-1.08" transform="translate(-3.04 -0.49)"/><path class="cls-1" d="M36.59,10.85s2.74-.87,3.52-2.26a5.78,5.78,0,0,0,.51-3.22s.45,1.35.56,1.91,0,2.44,0,3.41-.66,1.63-1.07,2.48-2.41,1.59-2.41,1.59" transform="translate(-3.04 -0.49)"/><path class="cls-1" d="M40.78,8.15s.44,2.52-.93,3.9" transform="translate(-3.04 -0.49)"/><path class="cls-1" d="M34.55,11.09s.59-.82,1.07-.65,1,.5,1,1.12a2.53,2.53,0,0,1-.52,1.61c-.38.37-.81-.1-.81-.1" transform="translate(-3.04 -0.49)"/><path class="cls-1" d="M34.92,11.38s.31-.63.56-.53a4.11,4.11,0,0,1,.74.53" transform="translate(-3.04 -0.49)"/><path class="cls-1" d="M35.74,11.56a.78.78,0,0,0-.26-.71" transform="translate(-3.04 -0.49)"/><path class="cls-1" d="M35.57,12.66a.52.52,0,0,0,.49-.57" transform="translate(-3.04 -0.49)"/><path class="cls-1" d="M34.29,16.84a2.58,2.58,0,0,1,.8,2s1.88.67,3.82-1.39a3.54,3.54,0,0,1-1.58-2.71" transform="translate(-3.04 -0.49)"/><path class="cls-1" d="M43.93,19.89c.19-.3.28-.55.21-.69" transform="translate(-3.04 -0.49)"/><path class="cls-1" d="M41.18,10.69a3.1,3.1,0,0,0,.39,1.36c1,1.75-.56,3.11-.81,3.93a3.52,3.52,0,0,0,.77,3.25,1.69,1.69,0,0,1,.79,1.05,2.6,2.6,0,0,1-.25,1.5c-.23.39.67-.39,1.36-1.21" transform="translate(-3.04 -0.49)"/><path class="cls-1" d="M40.62,5.37s.81-1.82,2.2-1.21,2.55.92,3.25,3.12l.7,2.19" transform="translate(-3.04 -0.49)"/><path class="cls-1" d="M43.69,3.1A2.59,2.59,0,0,0,42,3.5a5.15,5.15,0,0,0-1.11,1.44" transform="translate(-3.04 -0.49)"/><path class="cls-1" d="M40.76,5.78a1.87,1.87,0,0,1,2.29,0,4.92,4.92,0,0,1,1.86,5.32,11.66,11.66,0,0,0,.37,6.76c.7,1.46,1.58,3.12.65,4.46s-1.89.33-2-.2.26-1.19,1.54-.41" transform="translate(-3.04 -0.49)"/><path class="cls-1" d="M46.57,22.26s.88,1.06.09,1.86a1.85,1.85,0,0,1-1.75.52s1.25-.31.79-1.09" transform="translate(-3.04 -0.49)"/><path class="cls-1" d="M7.32,42.89s-2.75.43-3.1,0-1.31-8.14-1-9.2,1.19.42,1.19.42S7,39.85,7.12,40.26,6.8,42.15,7.32,42.89Z" transform="translate(-3.04 -0.49)"/><path class="cls-1" d="M22.24,44.34a4.07,4.07,0,0,0,3,.33s.36,2.9,0,3-6.42,1.42-7.17,1.42-1.53.14-1.81-.25-.47-1,.56-1.73A55.62,55.62,0,0,1,22.24,44.34Z" transform="translate(-3.04 -0.49)"/><path class="cls-1" d="M25.25,44.67s.84.15.58-.2c-.12-.17-.18-1.73-.42-3.78-.27-2.24-.73-5-.73-5s6.47,7.26,9.46,9a7.65,7.65,0,0,0,6.65.37c1.49-.78,2.28-4.73,2.31-5.26" transform="translate(-3.04 -0.49)"/><polyline class="cls-1" points="19.19 43.85 18.74 43.85 16.91 32.84"/><line class="cls-1" x1="21.22" y1="34.06" x2="21.64" y2="35.23"/><path class="cls-1" d="M25.71,43.73s5.74.73,7.64.45" transform="translate(-3.04 -0.49)"/><path class="cls-1" d="M7.32,42.89l.31.19s9.23,1.61,14.06.7" transform="translate(-3.04 -0.49)"/><line class="cls-1" x1="22.08" y1="38.08" x2="24.04" y2="37.83"/><path class="cls-1" d="M32.89,34.73A6.22,6.22,0,0,0,35.1,37,26.58,26.58,0,0,0,39.16,39a12.32,12.32,0,0,0,4.7.69c.16-.13,0-.7,0-.7" transform="translate(-3.04 -0.49)"/><path class="cls-1" d="M43.41,38.81s.76.13.88,0a20,20,0,0,1-.44-3.36,70.37,70.37,0,0,1,.07-7.09,15.4,15.4,0,0,0,0-4.67,6.38,6.38,0,0,0-.82-2.55" transform="translate(-3.04 -0.49)"/><path class="cls-1" d="M40.41,21.34a2.64,2.64,0,0,0-2-.91c-1.18.08-5.52,5.51-5.52,5.51s3.78,3.76,6,4.42c0,0,2.47-3.92,2.62-5" transform="translate(-3.04 -0.49)"/><path class="cls-1" d="M25.83,32.42s3.9,3.67,4.78,3.67,7.29-5.63,7.29-6.17" transform="translate(-3.04 -0.49)"/><path class="cls-1" d="M33.89,26.88s-3.15,3.81-3.32,4.57" transform="translate(-3.04 -0.49)"/><path class="cls-1" d="M31.29,32.09C29,30.53,29,30.89,26.83,29.76" transform="translate(-3.04 -0.49)"/><path class="cls-1" d="M14.31,30.07s10,2.72,10.29,3,1.12-4.34,2.1-4.9l-8.44-3.58A17.53,17.53,0,0,0,14.31,30.07Z" transform="translate(-3.04 -0.49)"/><path class="cls-1" d="M26.7,28.12s1.37-2.17,2.85-2.41l-6.68-3.12s-3.13-.28-4.61,1.95" transform="translate(-3.04 -0.49)"/><line class="cls-1" x1="11.47" y1="31.13" x2="21.57" y2="33.68"/><line class="cls-1" x1="21.42" y1="32.72" x2="11.42" y2="29.99"/><line class="cls-1" x1="11.42" y1="30.26" x2="21.57" y2="33.1"/><line class="cls-1" x1="11.42" y1="30.69" x2="21.64" y2="33.42"/><polyline class="cls-1" points="23.89 28.68 21.84 34.16 11.47 31.39"/><polyline class="cls-1" points="23.89 28.46 26.77 25.73 26.06 25.35"/><line class="cls-1" x1="21.83" y1="33.1" x2="23.57" y2="28.3"/><line class="cls-1" x1="23.89" y1="28.06" x2="26.21" y2="25.85"/><line class="cls-1" x1="24.18" y1="27.32" x2="25.76" y2="25.85"/><path class="cls-1" d="M35.09,18.86l-.93.91a4.87,4.87,0,0,0,5.85-2,3.91,3.91,0,0,0-1.1-.31" transform="translate(-3.04 -0.49)"/><path class="cls-1" d="M41,18.49a3.39,3.39,0,0,0-1-.71" transform="translate(-3.04 -0.49)"/><path class="cls-1" d="M27.51,28.4a11.89,11.89,0,0,0,4.12,1.36" transform="translate(-3.04 -0.49)"/><path class="cls-1" d="M34.16,19.77a7.37,7.37,0,0,0-1.93,5.62c.37,2.8.5,3.05,0,3.56" transform="translate(-3.04 -0.49)"/><path class="cls-1" d="M33.73,24.91s2.69,3.24,5.91,4.26" transform="translate(-3.04 -0.49)"/><path class="cls-1" d="M39.77,45.45l-.1-.28" transform="translate(-3.04 -0.49)"/><path class="cls-2" d="M39.47,44.56a3.81,3.81,0,0,1-.21-1c0-.45,1.37-1.9,1.9-3.25" transform="translate(-3.04 -0.49)"/><path class="cls-1" d="M41.27,40a1.74,1.74,0,0,0,.07-.29" transform="translate(-3.04 -0.49)"/><path class="cls-1" d="M21.64,43.47" transform="translate(-3.04 -0.49)"/><path class="cls-1" d="M21.64,43.82l.28.09" transform="translate(-3.04 -0.49)"/><path class="cls-3" d="M22.41,44.05a6.5,6.5,0,0,0,2.77.2" transform="translate(-3.04 -0.49)"/><path class="cls-1" d="M25.43,44.18a2.36,2.36,0,0,0,.28-.12" transform="translate(-3.04 -0.49)"/><path class="cls-1" d="M7.8,40.05s0,.11-.07.29" transform="translate(-3.04 -0.49)"/><path class="cls-4" d="M7.64,40.82a5.28,5.28,0,0,0,0,1.73" transform="translate(-3.04 -0.49)"/><path class="cls-1" d="M7.7,42.8a2.31,2.31,0,0,0,.1.28" transform="translate(-3.04 -0.49)"/><path class="cls-1" d="M15.4,29.76s-.06-.71.16-.81.58-.84.67-1a1,1,0,0,1,.48-.56c.38-.2.57-1,.76-1.06s.81-.31.79-.49a1,1,0,0,1,.14-.45" transform="translate(-3.04 -0.49)"/><path class="cls-1" d="M16.2,29.92s-.19-.5.16-.75.31-.64.54-.77.67-.45.64-.59a1.73,1.73,0,0,1,.38-.93l.64-.27" transform="translate(-3.04 -0.49)"/><path class="cls-1" d="M18,29.17c.22-.36.19-.64.38-.77s.48-.42.48-.59a2.85,2.85,0,0,1,.35-.74c.59-.25.79-1.41.94-1.23" transform="translate(-3.04 -0.49)"/><path class="cls-1" d="M18.4,30.48c.32-.55.13-1,.51-1a.63.63,0,0,0,.55-.53c0-.14-.06-.55.08-.55" transform="translate(-3.04 -0.49)"/><path class="cls-1" d="M19.35,30.48c.26-.27.37-1.05.6-1s.6.09.56-.49a2.73,2.73,0,0,1,.21-1.14l.58-.42a5.82,5.82,0,0,0,.38-.51" transform="translate(-3.04 -0.49)"/><path class="cls-1" d="M20.51,30.93c.15-.34.16-.72.38-.78s.19-.28.2-.39-.33-.46,0-.59.33-.22.36-.38-.12-.54.23-.67.09-.42.41-.73l.32-.3" transform="translate(-3.04 -0.49)"/><path class="cls-1" d="M22.24,29.76c.17-.31-.31-.42.17-.81s.51-1.56.51-1.56l.45-.3" transform="translate(-3.04 -0.49)"/><path class="cls-1" d="M22.41,31.62c.22-.36.64-1.9.8-1.86s.06-1,.16-1.08.41-.29.54-.26.35-.61.35-.61" transform="translate(-3.04 -0.49)"/><path class="cls-1" d="M23.34,31.85c.25-.3.09-1.36.31-1.37s.26-.9.26-.9-.06-.22.35-.41.44-1,.62-1.05" transform="translate(-3.04 -0.49)"/><path class="cls-1" d="M24.88,30.48c.11.11-.31-.3,0-.36s.24-.2.24-.2-.21-.55,0-.48" transform="translate(-3.04 -0.49)"/><path class="cls-1" d="M19.54,24.54c.26-.12.21-.76.41-.76s.36-.41.36-.41a2.52,2.52,0,0,1,.58,0c.25,0,.63-.39.79-.23a1,1,0,0,0,.56.16l.54-.38" transform="translate(-3.04 -0.49)"/><path class="cls-1" d="M21.09,24.16a5.51,5.51,0,0,1,1.1-.43.34.34,0,0,0,.35,0c.19-.11.09-.2.38-.33a1.24,1.24,0,0,1,.45-.13" transform="translate(-3.04 -0.49)"/><path class="cls-1" d="M21.46,25.5c.06-.32.05-.83.22-.84.35,0,.89-.12.89-.12s.32-.79.57-.72.64-.68.77-.42" transform="translate(-3.04 -0.49)"/><path class="cls-1" d="M22.78,25.5c.31-.59.87-1,1.13-1s.5-.41.55-.41a3.05,3.05,0,0,0,.42-.31" transform="translate(-3.04 -0.49)"/><path class="cls-1" d="M23.52,26.33c.35-.58.41-.84.39-1s.86-.31,1-.42.43,0,.49-.37.46-.18.46-.18" transform="translate(-3.04 -0.49)"/><path class="cls-1" d="M25,26.61c.1-.68-.23-1.33.88-1.26.4,0,.43-.44.43-.44s.23-.35.44-.25" transform="translate(-3.04 -0.49)"/><path class="cls-1" d="M26.24,26.06c.42-.23.32-.5.69-.73s.36,0,.58-.23" transform="translate(-3.04 -0.49)"/><path class="cls-1" d="M27.06,26.61c.16.06.16-.55.16-.55h.54" transform="translate(-3.04 -0.49)"/><path class="cls-1" d="M41,6.53a4,4,0,0,1,2.31,5.34c-1.34,3.84-1.45,5.62-.18,6.36.72.42,1.47-.45,1.47-.45s-.91.08-1.05-.65" transform="translate(-3.04 -0.49)"/><path class="cls-1" d="M45.9,16a3.78,3.78,0,0,1,.86,1.28" transform="translate(-3.04 -0.49)"/><path class="cls-1" d="M43.43,14.52s-.14.12-.08.49" transform="translate(-3.04 -0.49)"/><path class="cls-1" d="M46.77,11.65c0,.06.25,1,.69,1.28" transform="translate(-3.04 -0.49)"/><path class="cls-1" d="M39.93,4.26s-1-.06-.85-1.72A5.07,5.07,0,0,1,39.4.59s2.11,2.89.73,3.75c0,0-.35-.13-.16-1.32" transform="translate(-3.04 -0.49)"/><line class="cls-1" x1="37.22" y1="3.75" x2="37.36" y2="4.23"/><path class="cls-1" d="M40.26,1.89a2.66,2.66,0,0,1,1-1.17s.73,1.37.25,2.05" transform="translate(-3.04 -0.49)"/><path class="cls-1" d="M40.62,3.5a2.06,2.06,0,0,0,.25-1" transform="translate(-3.04 -0.49)"/><path class="cls-5" d="M7.69,41.57c5.46.53,13.22.22,13.47,0" transform="translate(-3.04 -0.49)"/><path class="cls-5" d="M25.5,41.57s4.77.46,5,.2" transform="translate(-3.04 -0.49)"/><path class="cls-5" d="M37.9,38.56a7.8,7.8,0,0,1-1.45,2.13c-1.55,1.41-9.84-7.38-9.84-7.38" transform="translate(-3.04 -0.49)"/><path class="cls-5" d="M22.24,34.16c-.26,1.35.63,6.06,1.28,10.08" transform="translate(-3.04 -0.49)"/><path class="cls-6" d="M16.06,48.25a1.48,1.48,0,0,0,1,.44,55,55,0,0,0,8.3-1.49" transform="translate(-3.04 -0.49)"/><path class="cls-6" d="M3.81,33.44s-.35-.07-.35.72S4,41.63,4.59,43" transform="translate(-3.04 -0.49)"/><path class="cls-6" d="M18.83,48.49a5.05,5.05,0,0,0-.27-1l4.81-2.79" transform="translate(-3.04 -0.49)"/><polyline class="cls-6" points="14.97 46.13 17.09 46.13 17.68 44.57 19.37 44.81"/><polyline class="cls-6" points="15.52 47.04 16.31 45.24 18.42 45.35 18.74 43.85"/><path class="cls-6" d="M3.56,35.72h.8s1.12,6,2.7,5.57" transform="translate(-3.04 -0.49)"/><polyline class="cls-1" points="1.36 35.47 2.7 36.6 1.94 37.75 3.54 38.48 3.11 40.37"/><path class="cls-1" d="M5.23,36l-.54,1.25,1.55,1-.75,1.49,1.63.58.2-.28a15.14,15.14,0,0,0,3.36.14C12.77,40,20.89,39,20.89,39" transform="translate(-3.04 -0.49)"/></svg>