<?xml version="1.0" encoding="utf-8"?>
<!-- Generator: Adobe Illustrator 22.0.1, SVG Export Plug-In . SVG Version: 6.00 Build 0)  -->
<svg version="1.1" id="Layer_1" xmlns="http://www.w3.org/2000/svg" xmlns:xlink="http://www.w3.org/1999/xlink" x="0px" y="0px"
	 viewBox="0 0 50 60.4385948" style="enable-background:new 0 0 50 60.4385948;" xml:space="preserve">
<style type="text/css">
	.st0{fill:#231F20;}
</style>
<title>companies</title>
<g id="kpjHgZ.tif">
	<path d="M18.8299999,1.5700001C19.2600002,3.1199999,19.6900005,4.6700001,20.1100006,6.23
		c0.0244331,0.0747199,0.0244331,0.1552801,0,0.23c-0.2000008,0.3499999-0.4099998,0.6999998-0.6200008,1
		c-0.039999,0.0533333-0.039999,0.1266665,0,0.1799998C19.6999989,7.98,19.9099998,8.3400002,20.1199989,8.6899996
		c0.0192356,0.0618725,0.0192356,0.1281271,0,0.1899996c-0.4200001,1.5299997-0.8400002,3.0599995-1.2700005,4.5900002
		c0.0053883,0.0263948,0.0053883,0.0536051,0,0.0799999l-0.7000008-0.1800003L14,12.3400002
		c-0.061801-0.0224781-0.1145039-0.064641-0.1499996-0.1199999c-0.21-0.3500004-0.4200001-0.6999998-0.6199999-1.0500002
		c-0.0272446-0.0739613-0.1017551-0.1194944-0.1800003-0.1099997h-1.1999998
		c-0.0880566,0.0158281-0.1787186-0.0059309-0.25-0.0600004L8.2299995,7.6900001
		C8.1980019,7.6547079,8.1609297,7.6243753,8.1199999,7.5999999l0,0L8.25,7.5l3.3699999-3.2799997
		c0.0594215-0.0627794,0.1437511-0.095778,0.2299995-0.0900002h1.2300005C13.1602545,4.1322465,13.2311401,4.0780401,13.25,4
		c0.1999998-0.3499999,0.3999996-0.71,0.6099997-1C13.881155,2.9239113,13.9314594,2.8592336,14,2.8199999L18.0799999,1.76
		l0.6399994-0.1900001L18.8299999,1.5700001z M17.0699997,11.79V11.71L15,8.25
		c-0.0338907-0.0661068-0.106781-0.1025515-0.1800003-0.0900002h-4.1700001l-0.0500002,0.0600004
		c0,0,0.1000004,0,0.1300001,0.0699997C11.4700003,9,12.2200003,9.75,13,10.5
		c0.2274942,0.2588387,0.5392122,0.4288664,0.8800001,0.4799995H13.96L17.0699997,11.79z M18.1199989,11.1899996
		c0,0,0-0.0699997,0-0.0799999c0.3299999-1.1300001,0.6499996-2.2600002,1-3.3800001
		c0.030077-0.0977387,0.030077-0.2022619,0-0.3000002c-0.2199993-0.79-0.4500008-1.5799999-0.6700001-2.3699999
		c-0.1100006-0.3600001-0.2099991-0.71-0.3199997-1.0999999L18,4.1100001c-0.6700001,1.1100001-1.3299999,2.2199998-2,3.3299999
		c-0.0600853,0.083663-0.0600853,0.1963372,0,0.2800002c0.6299992,1,1.25,2.0799999,1.8700008,3.1300001L18.1199989,11.1899996z
		 M10.6499996,7h4.1500006C14.8899317,7.0134001,14.9757357,6.9576273,15,6.8699999
		c0.6700001-1.1300001,1.3400002-2.2600002,2-3.3900001V3.3699999l0,0l-3.5900002,0.9099998
		C13.349021,4.2937298,13.2933989,4.3250175,13.25,4.3699999l-1.7700005,1.7400002
		C11.1999998,6.3899999,10.9300003,6.6799998,10.6499996,7z"/>
	<path d="M41.3400002,5.3099999L41.25,5.5l-1.6500015,4.8000002c-0.0600014,0.1700001-0.1399994,0.3400002-0.2200012,0.5100002
		c-0.2054138,0.4860134-0.6823616,0.8013487-1.2099991,0.8000002h-1v-1h0.5299988
		c0.3192444,0.0263119,0.599369-0.2111549,0.6256828-0.5303984c0.0052452-0.063633-0.0000534-0.1276951-0.0156822-0.1896019
		c-0.0371208-0.2666941-0.1042137-0.5283489-0.2000008-0.7799997l-1.3399963-3.7300005c0,0,0-0.0900002-0.0600014-0.1500001
		c0.4099998,0,0.7999992,0,1.1899986,0c0.0442886,0.0089655,0.0815315,0.0387573,0.0999985,0.0799999l1,2.9999995v0.1300001
		c0-0.0900002,0-0.1400003,0.0600014-0.1899996c0.25-0.8200002,0.4900017-1.6399999,0.7400017-2.46
		c0-0.1599998,0.0999985-0.3200002,0.1599998-0.48s0.0600014-0.0900002,0.0999985-0.0900002h1.2000008L41.3400002,5.3099999z"/>
	<path d="M28.5400009,10h-1.1700001V5.2399998h1.1399994v0.6500001l0.1000004-0.1100001
		c0.4091969-0.5779095,1.1431026-0.8279209,1.8199997-0.6199999c0.6516113,0.1749196,1.1186085,0.7465901,1.1599998,1.4200001
		c0.0102863,0.1431489,0.0102863,0.2868509,0,0.4299998v3.0000005h-1.1499996V9.8699999c0-0.8999996,0-1.8000002,0-2.6999998
		c0.0847244-0.4617333-0.2208996-0.9047251-0.6826344-0.98945c-0.0256138-0.0047002-0.0514297-0.0082202-0.0773659-0.01055
		c-0.5104713-0.0945182-1.0009117,0.2426777-1.0954304,0.753149c-0.0016518,0.0089273-0.0031757,0.017879-0.00457,0.0268507
		c-0.0148735,0.1295748-0.0148735,0.2604251,0,0.3899999c0,0.8200002,0,1.6399999,0,2.4599996L28.5400009,10z"/>
	<path d="M26.7600002,10h-1.1200008V9.46L25.539999,9.5699997c-0.3656406,0.4831419-0.9766617,0.7127619-1.5699997,0.5900002
		c-0.8072605-0.0483427-1.4285831-0.7317982-1.3999996-1.54c0-1,0-2,0-3c0-0.1300001,0-0.25,0-0.3800001h1.1700001v2.9099998
		c-0.0153027,0.1161652-0.0153027,0.2338352,0,0.3500004c0.1071243,0.3963327,0.4938297,0.6498394,0.8999996,0.5900002
		C25.1212311,9.0747442,25.5093079,8.6910286,25.5299988,8.21c0.0102329-0.1698465,0.0102329-0.3401542,0-0.5100002v-2.46h1.1700001
		L26.7600002,10z"/>
	<path d="M36.3600006,5.2399998v0.8400002h-0.7400017c0,0.0599999,0,0.0999999,0,0.1500001v2.3399997
		c-0.0088463,0.0764112-0.0088463,0.1535883,0,0.2299995c0.0190277,0.1480961,0.1409264,0.2615852,0.2900009,0.2700005h0.4500008V10
		C35.9029503,10.0717573,35.4351807,10.0270443,35,9.8699999C34.6582718,9.7171307,34.4415207,9.3742657,34.4500008,9
		c0-0.9200001,0-1.8400002,0-2.7600002V6.0799999h-0.6500015V5.23h0.6500015V3.74h1.1699982v1.4999998H36.3600006z"/>
	<path d="M32.2599983,5.23h1.1500015V10h-1.1500015V5.23z"/>
	<path d="M33.4099998,3.74v0.9999998H32.25v-1L33.4099998,3.74z"/>
</g>
<g id="_4gxJan.tif">
	<path d="M30.4549923,39.3545609v1.2999992h-9v-9h9v1.2600021h-7.6700001v6.4699974L30.4549923,39.3545609z"/>
	<path d="M8.2149916,32.8945618V31.614563h9.000001v9h-9v-1.2299995h7.7099991v-6.4900017H8.2149916z"/>
	<path d="M41.0949898,31.5645638v1.329998h-9v-1.329998H41.0949898z"/>
	<path d="M32.0549927,40.6545639v-1.3199997h9v1.3199997H32.0549927z"/>
	<path d="M41.1049919,35.4745636v1.2899971h-9v-1.2899971H41.1049919z"/>
	<path d="M18.6349907,31.5945625h1.2900009v9h-1.2900009V31.5945625z"/>
	<path d="M27.6449909,44.1245613v-0.3099976c0.2800007,0,0.7099991,0,1.0499992,0c0,0.2999992,0,0.5899963,0,0.8699989
		c-0.029974,0.1015282-0.0980587,0.1875305-0.1900005,0.2400017c-0.5752869,0.4355812-1.3865948,0.3665352-1.8799992-0.1599998
		c-0.4257984-0.6061859-0.4013729-1.4204292,0.0599995-2c0.5699997-0.5999985,1.7999992-0.4599991,2,0.3899994l-0.2299995,0.1200027
		c-0.2900009-0.5200005-0.5100002-0.6500015-1-0.5800018c-0.4116497,0.0814171-0.7160454,0.4310608-0.7399998,0.8500023
		c-0.1599998,0.829998,0.3199997,1.4299965,1.0900002,1.3599968c0.5,0,0.6700001-0.25,0.6200008-0.8100014"/>
	<path d="M24.6749916,44.6545601c0-0.7799988,0-1.4799995,0-2.1599998h0.25v0.2000008c0,0.7999992,0,1.5999985,0,2.4099998
		c-0.1524773,0.0893593-0.3485222,0.0381889-0.4378796-0.1142845c-0.0085735-0.0146294-0.0159683-0.0299149-0.0221195-0.0457153
		c-0.3784122-0.6416664-0.7958641-1.2594948-1.25-1.8499985v1.7899971c0,0.1800003,0,0.3199997-0.2800007,0.2400017v-2.7199974
		h0.3600006"/>
	<path d="M11.1949921,43.7945633c0-1,0.75-1.6100006,1.6300001-1.2999992
		c0.5033169,0.1856499,0.8301697,0.6739159,0.8100004,1.2099991c0.0849876,0.5287399-0.1554327,1.0568771-0.6099997,1.3400002
		c-0.393074,0.2759399-0.9169264,0.2759399-1.3100004,0C11.3249111,44.7552795,11.1251831,44.2751617,11.1949921,43.7945633z
		 M13.3049917,43.7945633c0-0.6300011-0.29-1.0499992-0.75-1.1100006c-0.4937868-0.0569153-0.9402189,0.2972374-0.9971342,0.7910271
		c-0.001112,0.0096397-0.0020666,0.0192986-0.0028658,0.0289726c-0.1099997,0.6799965,0.1800003,1.2899971,0.6700001,1.3899994
		h0.1099997c0.5900002,0.0699997,0.9700003-0.3300018,0.9700003-1.079998V43.7945633z"/>
	<path d="M31.7349911,42.7845612H30.274992v0.8100014h1.4200001v0.3099976c-0.3799992,0-1,0-1.4200001,0v0.9399986h1.539999
		v0.3199997c-0.5599995,0-1.2800007,0-1.8600006,0v-2.6799965h1.7700005"/>
	<path d="M14.9249916,44.2245598h0.1899996c-0.0123243,0.0761719-0.0123243,0.1538277,0,0.2299995
		c0.1538067,0.3964691,0.5998945,0.5931892,0.9963655,0.4393806c0.0357246-0.0138588,0.0703659-0.030365,0.1036339-0.0493813
		c0.1483536-0.0988693,0.2495861-0.2543335,0.2800007-0.4300003c0-0.1199989-0.1700001-0.2999992-0.2999992-0.3600006
		c-0.2496662-0.1009369-0.5071983-0.1812057-0.7700005-0.2399979c-0.3302479-0.0646172-0.5613298-0.3641701-0.54-0.7000008
		c0.0186491-0.3306885,0.263464-0.6045456,0.5900002-0.6599998c0.4422188-0.1879158,0.9530401,0.0182419,1.140954,0.4604607
		c0.0429993,0.1011925,0.0664291,0.2096214,0.069046,0.3195381h-0.2299995
		c-0.0080128-0.0728836-0.0282993-0.1438828-0.0599995-0.2099991c-0.2285023-0.3157082-0.6530991-0.417614-1-0.2399979
		c-0.179492,0.0855141-0.2556763,0.3003464-0.1701612,0.4798393c0.0355225,0.0745583,0.0956011,0.1346359,0.1701612,0.1701584
		c0.2299995,0.1000023,0.4899998,0.1500015,0.7399998,0.2299995c0.4400005,0.1300011,0.6800003,0.4099998,0.6700001,0.7599983
		s-0.2600002,0.5999985-0.7000008,0.75S14.7549915,44.9645615,14.9249916,44.2245598z"/>
	<path d="M21.9249916,45.1045609h-0.3899994v-0.2200012c-0.0699997-0.1899986-0.1399994-0.5-0.2600002-0.5299988
		c-0.3295059-0.071434-0.6704941-0.071434-1,0c-0.1200008,0-0.1599998,0.2400017-0.25,0.4199982
		s-0.1399994,0.3300018-0.1399994,0.3300018H19.524992c0.3099995-0.8199997,0.6200008-1.6499977,0.9400005-2.4699974
		c0.0426693-0.0801086,0.1203823-0.1356163,0.2099991-0.1500015c0.0983505,0.0186729,0.1849384,0.0763969,0.2399998,0.1599998
		C21.2449913,43.4645615,21.564991,44.2745628,21.9249916,45.1045609z M20.2849922,44.024559h0.8799992l-0.4500008-1.2199974
		L20.2849922,44.024559z"/>
	<path d="M8.8449917,42.5045624v2.3499985h1.2399998v0.2999992c-0.4300003,0-1.0500002,0-1.54,0c0-0.8499985,0-1.829998,0-2.6399994
		"/>
</g>
<path d="M39.1749916,44.1745605h0.1899986c-0.0119858,0.0761986-0.0119858,0.153801,0,0.2299995
	c0.1636772,0.3984756,0.6193924,0.5888176,1.017868,0.4251404c0.0316696-0.0130081,0.0624466-0.0280876,0.0921326-0.0451393
	c0.1457977-0.0950661,0.2440414-0.2478905,0.2700005-0.4199982c0-0.1199989-0.1699982-0.2999992-0.2999992-0.3600006
	c-0.2510414-0.0997543-0.5082397-0.1832619-0.7700005-0.25c-0.3272476-0.0604172-0.5560074-0.3582382-0.5299988-0.6899986
	c0.0061684-0.3321381,0.2514076-0.6112061,0.5800018-0.6599998c0.4422188-0.187912,0.9530411,0.0182419,1.1409531,0.4604607
	c0.0429993,0.1011925,0.0664291,0.2096214,0.069046,0.3195381h-0.2100029
	c-0.0080147-0.0728836-0.0283012-0.1438828-0.0600014-0.2099991c-0.2232285-0.323494-0.6542664-0.4269447-1-0.2399979
	c-0.179493,0.0855141-0.2556763,0.3003464-0.1701622,0.4798393c0.0355225,0.0745583,0.0956039,0.1346359,0.1701622,0.1701584
	c0.2419281,0.0884171,0.4890633,0.1618881,0.7400017,0.2200012c0.4500008,0.1399994,0.6800003,0.4099998,0.6699982,0.7699966
	s-0.2599983,0.5999985-0.7000008,0.7400017S39.0049934,44.9645615,39.1749916,44.1745605z"/>
<path d="M33.3849907,42.5045624v2.3499985h1.2400017v0.2999992c-0.4300003,0-1.0499992,0-1.5400009,0
	c0-0.8499985,0-1.829998,0-2.6399994"/>
<path d="M37.734993,42.7445641h-1.4600029v0.8099976c0.3800011,0,1,0,1.4099998,0v0.2999992c-0.3699989,0-1,0-1.4199982,0v0.9500008
	h1.5499992v0.3100014c-0.5699997,0-1.2799988,0-1.8699989,0v-2.670002c0.5699997,0,1.2099991,0,1.7700005,0"/>
<g id="layer1">
	<path id="path6538" class="st0" d="M16.690752,52.7099991v1.4900017h1.7299995v-1.4900017h0.4799995v3.5699997h-0.4699993
		v-1.6699982H16.690752v1.6699982h-0.4599991v-3.5699997H16.690752z"/>
	<path id="path6540" class="st0" d="M21.9007511,54.9799995c0.0608883,0.687664-0.4472141,1.294487-1.1348801,1.3553772
		c-0.0449238,0.0039787-0.0900307,0.0055199-0.1351204,0.0046234c-0.6736565,0.0133247-1.2305622-0.5219803-1.2438869-1.1956367
		c-0.0008202-0.0414925,0.0004768-0.0830002,0.0038872-0.1243629c-0.0553551-0.6936722,0.4621048-1.3008804,1.1557789-1.3562355
		c0.0413189-0.0032997,0.082777-0.0045547,0.1242218-0.0037651c0.6681213-0.0138245,1.2209492,0.5165863,1.2347736,1.1847076
		C21.9064598,54.8898582,21.9048672,54.9350281,21.9007511,54.9799995 M19.9007511,54.9799995c0,0.5600014,0.3199997,1,0.7800007,1
		s0.7800007-0.4199982,0.7800007-1s-0.2199993-1-0.7700005-1S19.9007511,54.4899979,19.9007511,54.9799995"/>
	<path id="path6542" class="st0" d="M22.3407516,54.4099998c0-0.2599983,0-0.4799995,0-0.6899986h0.4099998v0.4099998l0,0
		c0.1624813-0.2942352,0.4739189-0.4749451,0.8099995-0.4700012c0.3305225-0.0038605,0.625639,0.2063599,0.7299995,0.5200005l0,0
		c0.0689869-0.1313629,0.1643028-0.2471046,0.2800007-0.3400002c0.1631775-0.1246681,0.3648186-0.188343,0.5699997-0.1800003
		c0.3400002,0,0.8500004,0.2200012,0.8500004,1.1199989v1.5099983h-0.4500008v-1.4599953
		c0-0.4900017-0.1800003-0.7900009-0.5599995-0.7900009c-0.2553406,0.0138817-0.4749184,0.1855545-0.5499992,0.4300003
		c-0.0121536,0.0761833-0.0121536,0.1538162,0,0.2299995v1.5900002H23.980751V54.75
		c0-0.4099998-0.1800003-0.7099991-0.5400009-0.7099991c-0.2741451,0.0160065-0.5075226,0.2051239-0.5799999,0.4700012
		c-0.015089,0.0759239-0.015089,0.1540756,0,0.2299995v1.5499992h-0.4500008L22.3407516,54.4099998z"/>
	<path id="path6544" class="st0" d="M26.9007511,55.0600014c-0.0399723,0.4621925,0.3023071,0.869278,0.7645016,0.9092522
		c0.0450726,0.0038986,0.0903854,0.0041466,0.135498,0.0007477c0.2495708,0.0058289,0.4977837-0.0383759,0.7299995-0.1300011
		l0.0799999,0.3400002c-0.2773991,0.1202507-0.5777721,0.1782761-0.8799992,0.1699982
		c-0.6728268,0.0359688-1.2474194-0.4803047-1.2833881-1.1531334c-0.0031528-0.05896-0.0020199-0.1180725,0.0033875-0.1768684
		c-0.077425-0.6971169,0.4249325-1.3250046,1.1220474-1.4024277c0.0391788-0.0043526,0.0785408-0.0068779,0.1179543-0.0075684
		c0.6128998,0.0129623,1.0992451,0.5203209,1.0862846,1.1332207c-0.0006847,0.0323334-0.0027809,0.0646248-0.0062847,0.0967789
		c0.0073032,0.0764923,0.0073032,0.1535072,0,0.2299995L26.9007511,55.0600014z M28.3007507,54.7200012
		c0.0497856-0.3722382-0.2116146-0.7143593-0.5838547-0.7641449c-0.0252514-0.003376-0.0506744-0.0053329-0.0761452-0.0058556
		c-0.4051361,0.0307579-0.7208786,0.3638-0.7299995,0.7700005H28.3007507z"/>
	<path id="path6546" class="st0" d="M29.8407516,55.1399994l-0.3799992,1.1500015h-0.4899998l1.2399979-3.6800003h0.5699997
		l1.2499962,3.6500015h-0.5099983l-0.3899994-1.1500015L29.8407516,55.1399994z M31.0407524,54.7700005l-0.3600006-1
		c-0.0744915-0.2166328-0.137907-0.4369202-0.1900005-0.6599998l0,0c-0.0599995,0.2099991-0.1200008,0.4399986-0.1900005,0.6599998
		l-0.3500004,1H31.0407524z"/>
	<path id="path6548" class="st0" d="M32.5007477,53.670002l0.3400002,1.3300018
		c0.0800018,0.2900009,0.1500015,0.5600014,0.2000008,0.8300018l0,0c0.0600014-0.2599983,0.1500015-0.5400009,0.2400017-0.8300018
		l0.4199982-1.3300018H34.10075l0.4099998,1.3100014c0.0999985,0.3100014,0.1699982,0.5900002,0.2299995,0.8499985l0,0
		c0.0474091-0.2842369,0.1142311-0.5648956,0.2000008-0.8400002l0.3699989-1.3199997h0.4700012l-0.8400002,2.6199989h-0.4300003
		l-0.4099998-1.25c-0.0900002-0.2900009-0.1599998-0.5499992-0.2299995-0.8600006l0,0
		c-0.0574303,0.2924919-0.1376762,0.5800362-0.2400017,0.8600006l-0.4199982,1.25h-0.4099998l-0.7900009-2.6199989H32.5007477z"/>
	<path id="path6550" class="st0" d="M37.980751,55.6599998c-0.0055618,0.211174,0.0112,0.422348,0.0499992,0.6300011h-0.4399986
		v-0.3300018l0,0c-0.1909332,0.2480431-0.4869919,0.3923721-0.7999992,0.3899994
		c-0.4001884,0.0829315-0.7918358-0.1742516-0.8747673-0.57444c-0.0112801-0.0544395-0.0163918-0.1099739-0.0152359-0.1655579
		c0-0.6399994,0.5600014-1,1.5699997-1l0,0c0.0402069-0.2955093-0.1667557-0.5676651-0.4622688-0.607872
		C36.9661369,53.9963684,36.9232597,53.9956512,36.8807487,54c-0.2410545,0.000782-0.4769096,0.0701485-0.6800003,0.2000008
		l-0.1100006-0.3199997c0.2593536-0.1559715,0.557415-0.2356873,0.8600006-0.2299995c0.7999992,0,1,0.5499992,1,1.0699997
		L37.980751,55.6599998z M37.520752,54.9500008c-0.5200005,0-1.1100006,0.0800018-1.1100006,0.5900002
		c-0.0168533,0.2368851,0.1615143,0.4425774,0.3983994,0.4594307C36.8263245,56.0006561,36.8435555,56.000843,36.8607521,56
		c0.2834969,0.0064583,0.5384598-0.1716118,0.6300011-0.4399986c0.0094604-0.0495529,0.0094604-0.1004486,0-0.1500015
		L37.520752,54.9500008z"/>
	<path id="path6552" class="st0" d="M38.7607498,53.670002l0.5699997,1.5499992
		c0.0600014,0.1699982,0.1199989,0.3800011,0.1699982,0.5400009l0,0c0-0.1599998,0.0999985-0.3600006,0.1599998-0.5499992
		l0.5200005-1.5400009h0.5099983l-0.7200012,1.8699989c-0.1580505,0.592823-0.4683037,1.1340446-0.9000015,1.5699997
		c-0.166626,0.1469917-0.3652077,0.2531319-0.5800018,0.3100014l-0.1199989-0.4000015
		c0.1536827-0.0532341,0.2961121-0.1346207,0.4199982-0.2400017c0.1720123-0.1438446,0.3088341-0.3251381,0.4000015-0.5299988
		c0.0039673-0.0365601,0.0039673-0.0734406,0-0.1100006c0.0048714-0.0431976,0.0048714-0.0868034,0-0.1300011l-1-2.3400002
		L38.7607498,53.670002z"/>
	<path id="path6554" class="st0" d="M41.7807503,53.9900017c0.0109787,0.1985207-0.1410561,0.368351-0.3395767,0.3793259
		c-0.1985168,0.0109787-0.3683472-0.1410561-0.3793259-0.3395729c-0.0109749-0.1985207,0.1410561-0.368351,0.3395767-0.3793297
		c0.0097656-0.0005379,0.0195503-0.000679,0.0293274-0.0004234C41.6202126,53.6499252,41.7753372,53.8006172,41.7807503,53.9900017
		 M41.1607513,53.9900017c-0.0055237,0.1490135,0.1108017,0.274292,0.2598152,0.2798119
		c0.0033951,0.0001259,0.0067902,0.0001907,0.0101852,0.0001869c0.1435928,0.0001068,0.2600861-0.1162148,0.2601891-0.2598076
		C41.6909447,54.006794,41.6908798,54.0033951,41.6907501,54c0.0110474-0.1431694-0.0960617-0.2681847-0.2392311-0.2792282
		c-0.0069084-0.0005341-0.0138359-0.0007896-0.0207672-0.0007706
		C41.2816353,53.7200012,41.1607513,53.8408852,41.1607513,53.9900017L41.1607513,53.9900017 M41.3707504,54.170002h-0.0800018
		v-0.3400002h0.1399994c0.0351295-0.015007,0.0748711-0.015007,0.1100006,0
		c0.04142,0.0153732,0.0625381,0.0614166,0.0471649,0.1028366c-0.0081062,0.0218391-0.0253258,0.0390587-0.0471649,0.0471649l0,0
		c0.0331535,0.0187721,0.0554237,0.0521774,0.0600014,0.0900002c0,0.0499992,0,0.0699997,0,0.0800018h-0.0800018
		c-0.0048904-0.0264435-0.0048904-0.0535583,0-0.0800018c0,0,0,0-0.0699997,0l0,0L41.3707504,54.170002z M41.3707504,53.9800034
		L41.3707504,53.9800034c0.0499992,0,0.0800018,0,0.0800018,0s0,0-0.0699997,0l0,0H41.3707504z"/>
	<path id="path6556" class="st0" d="M13.2607508,50.7299995h-3l-1.8000002,2.1199989h0.6300001v2.2999992l-0.4799995,0.0699997
		c-0.1205177,0.0154419-0.205699,0.1256561-0.1902571,0.2461739c0.0019112,0.0149231,0.0053482,0.0296059,0.0102568,0.0438271
		c0.0311108,0.1066666,0.1288891,0.1800003,0.2399998,0.1800003l0.3700008-0.079998v0.6100006l3,0.5499992l2.3900003-0.5400009
		v-3.3699989l0.6499996-0.0600014L13.2607508,50.7299995z M12.6407509,53.2599983l0.6599998-0.0600014v0.8699989
		l-0.6599998,0.0900002V53.2599983z M9.2607508,56.0299988v-0.4799995l1.3199997-0.2200012
		c0.1159306-0.0033913,0.2071619-0.1001167,0.2037725-0.2160492c-0.0003338-0.0113983-0.0015955-0.0227547-0.0037727-0.0339508
		c0-0.2299995-0.25-0.1899986-0.25-0.1899986L9.2607498,55.079998V52.75l1.3400002-1.5800018l1.4700003,1.6500015v3.7200012
		L9.2607508,56.0299988z M12.6407509,55.3400002v-0.9000015l0.6599998-0.0900002v0.8800011L12.6407509,55.3400002z
		 M14.1207504,55.0800018l-0.5500002,0.0999985v-0.8699989l0.5500002-0.0800018V55.0800018z M13.5707502,54.0800018v-0.8699989
		l0.54-0.0499992v0.8400002L13.5707502,54.0800018z"/>
	<path id="path6558" class="st0" d="M11.2207508,52.8800011c-0.1483021-0.1793327-0.367341-0.285202-0.6000004-0.2900009l0,0
		c-0.2304878,0.0178528-0.4419832,0.1345406-0.5799999,0.3199997c-0.1478024,0.2030525-0.225071,0.4489059-0.2200003,0.7000008
		v0.0600014c0.0092831,0.2599564,0.1042032,0.5095634,0.2700005,0.7099991
		c0.1474466,0.1804199,0.3670197,0.2865486,0.6000004,0.2900009l0,0c0.2276878-0.0180664,0.4360161-0.1350212,0.5699997-0.3199997
		c0.1513643-0.2017937,0.2321806-0.4477577,0.2299995-0.7000008v-0.0400009
		c-0.0141706-0.2589455-0.1085291-0.5070724-0.2700005-0.7099991 M11.1307497,54.2700005
		c-0.1075563,0.1436119-0.271244,0.2345467-0.4499998,0.25l0,0c-0.1819696-0.0074387-0.3524733-0.0908737-0.4700003-0.2299995
		c-0.1405859-0.1692505-0.2214279-0.3801422-0.2299995-0.5999985v-0.0800018
		c-0.0028944-0.2152367,0.0637407-0.4256592,0.1899996-0.5999985c0.1057682-0.1456451,0.270462-0.2371407,0.4499998-0.25l0,0
		c0.1816645,0.0086365,0.3517141,0.0918503,0.4700003,0.2299995c0.1321201,0.1740837,0.2119007,0.382206,0.2299995,0.5999985
		v0.0200005c0.0028944,0.2152367-0.0637407,0.4256592-0.1899996,0.5999985"/>
	<path id="path6560" class="st0" d="M10.3407507,53.6100006c-0.0367928-0.2444611,0.0492439-0.4913521,0.2299995-0.6599998
		c-0.25,0-0.4399996,0.3199997-0.4200001,0.6699982S10.3907499,54.25,10.6407499,54.2399979l0,0
		c-0.1989479-0.1467133-0.3115015-0.3830757-0.3000002-0.6300011"/>
</g>
<g id="aNH4Nt.tif">
	<g>
		<path d="M43.2790871,20.728466c-0.3821144,0-0.764225,0-1.145607,0c-0.0229263,0.1971245,0.069828,0.3654671,0.2316437,0.4270382
			c0.1709366,0.0650444,0.3076477,0.0148563,0.4246941-0.1502037c0.0187416-0.0264301,0.057373-0.0599079,0.082756-0.0568199
			c0.110939,0.0135021,0.2203865,0.0392818,0.3502541,0.0644569c-0.065239,0.1868038-0.1736526,0.3134823-0.3372459,0.3939495
			c-0.5511703,0.2711048-1.1279411-0.0455036-1.1952324-0.6529732c-0.0307465-0.2775669-0.0003319-0.5413189,0.1764755-0.7670403
			c0.2082939-0.2659206,0.4940529-0.3205414,0.8062515-0.2537937c0.3251877,0.0695248,0.4911804,0.2983379,0.5636749,0.608654
			c0.0103683,0.0443821,0.0280418,0.0870571,0.0423355,0.1305218C43.2790871,20.5576591,43.2790871,20.6430626,43.2790871,20.728466
			z M42.1383781,20.4582863c0.0446434,0.0055332,0.0815773,0.013855,0.1185532,0.0140476
			c0.165493,0.0008583,0.3313904,0.005064,0.4961319-0.006422c0.0297852-0.0020771,0.0785484-0.0722866,0.0780792-0.110548
			c-0.002346-0.192276-0.1773262-0.346365-0.366127-0.335144C42.248745,20.0330734,42.1161995,20.2039242,42.1383781,20.4582863z"/>
		<path d="M12.0505724,21.6502075c0,0.1560898-0.0000391,0.326313,0.0000076,0.4965363
			c0.0001869,0.6831608,0.0005884,1.3663216,0.0004854,2.0494843c-0.0000296,0.1916943-0.000699,0.1919899-0.185483,0.1919994
			c-1.6035328,0.0000801-3.2070713-0.0018692-4.8105865,0.0032902c-0.1451693,0.0004673-0.1836214-0.0400524-0.1832147-0.183567
			c0.0047464-1.6746807,0.0025692-3.3493824,0.0049357-5.0240726c0.0000858-0.0607204,0.017499-0.1674118,0.0449758-0.1737251
			c0.0934553-0.0214691,0.1962519-0.0153828,0.2925625-0.0006866c0.0201764,0.0030785,0.039391,0.087656,0.0396228,0.1347752
			c0.0027337,0.5550537,0.0017529,1.1101284,0.0017776,1.6651974c0.0000186,0.4127426-0.0015616,0.8254948,0.0004439,1.2382278
			c0.0048356,0.9951439,0.7768812,1.7636433,1.7720861,1.7655163c0.25144,0.000473,0.5029535,0.0032043,0.7542696-0.0024185
			c0.0567446-0.0012684,0.1288481-0.0167179,0.166501-0.0535965c0.1998663-0.1957531,0.391221-0.4002113,0.5846415-0.6024952
			c0.011632-0.0121651,0.0156441-0.0316162,0.0325413-0.0675201c-0.0636721-0.0031929-0.1128731-0.00774-0.1620798-0.0078011
			c-0.4412069-0.0005589-0.8824167-0.0000515-1.3236246-0.0003986c-0.6103249-0.0004807-1.1128831-0.4870472-1.1160374-1.0937424
			c-0.0049572-0.9535542-0.0014911-1.9071522-0.0008817-2.8607311c0.0000224-0.0354309,0.0074992-0.070858,0.0115023-0.1062851
			c0.0129056-0.001627,0.0258107-0.0032539,0.0387168-0.004879c0.0074778,0.0529823,0.0213852,0.105957,0.021471,0.1589508
			c0.0013704,0.8492069-0.0005522,1.6984196,0.002305,2.5476189c0.000556,0.1653614-0.0025835,0.3351192,0.0317984,0.4951534
			c0.0984211,0.4581108,0.5103798,0.7874508,0.9850855,0.7939644c0.5027876,0.0068989,1.0057583,0.0033875,1.508605-0.0008316
			c0.0565214-0.000473,0.1285534-0.0190487,0.1665058-0.0564861c0.2126818-0.209795,0.4173155-0.427763,0.6238003-0.6437969
			c0.0114908-0.012022,0.014986-0.0316868,0.0319586-0.0695667c-0.0682211-0.0041199-0.1218042-0.0101166-0.1753922-0.0101719
			c-0.65944-0.0006618-1.318882-0.000021-1.978322-0.0006733c-0.2913818-0.000288-0.4179115-0.1207657-0.4187984-0.4126644
			c-0.0027237-0.8966408-0.0013895-1.7932949-0.0008097-2.6899433c0.0000229-0.0356216,0.0084524-0.0712376,0.0129652-0.1068573
			c0.0122423-0.0010567,0.0244837-0.0021133,0.036726-0.00317c0.0053883,0.0490513,0.01542,0.0980988,0.0154743,0.1471558
			c0.0009556,0.868185,0.0005426,1.7363701,0.000782,2.6045532c0.0000858,0.3102245,0.0866861,0.396841,0.3955812,0.3968906
			c0.6926498,0.0001087,1.3853121-0.0019989,2.0779362,0.0021992c0.1042776,0.0006332,0.1757307-0.0334873,0.2485619-0.1056404
			C11.7437429,21.9175625,11.8990297,21.7867451,12.0505724,21.6502075z"/>
		<path d="M12.0504818,20.2460346c0.0000219,0.3601704-0.0034256,0.7203922,0.0019798,1.0804806
			c0.0017805,0.1185818-0.0294294,0.1688843-0.1591167,0.167944c-0.710824-0.0051498-1.4217119-0.0040684-2.1325579-0.0007668
			c-0.1085167,0.0005035-0.1492424-0.0302181-0.1485147-0.1456184c0.0046329-0.7345276,0.0046673-1.4691124,0.0000267-2.20364
			c-0.0007534-0.1191578,0.0390749-0.1566925,0.1551723-0.1561165c0.7061043,0.0035,1.4122467,0.0036945,2.1183481-0.0001373
			c0.1212215-0.0006561,0.1688032,0.0375137,0.1667519,0.1631622
			C12.0466127,19.5161533,12.0504599,19.8811264,12.0504818,20.2460346z"/>
		<path d="M13.9537706,22.8037224c-0.0025702,0.0488605-0.0072994,0.0977192-0.0073709,0.1465836
			c-0.0006056,0.4124069-0.0036755,0.8248577,0.0018263,1.2371902c0.001482,0.1109505-0.029973,0.1507969-0.1447802,0.1471386
			c-0.2999783-0.0095596-0.2617855,0.0297413-0.2624359-0.2544079c-0.0014954-0.6541576,0.0017843-1.3083382-0.0025845-1.9624691
			c-0.0007629-0.1143627,0.031147-0.1472206,0.1500282-0.1589069c0.2111464-0.0207558,0.3328466,0.0503998,0.4381132,0.2388115
			c0.2308588,0.4132042,0.4895658,0.8108597,0.737525,1.2144814c0.0265064,0.043148,0.0571365,0.0837612,0.1190805,0.1203804
			c0.0036039-0.047369,0.0102434-0.0947323,0.0103359-0.1421089c0.0008211-0.4218845,0.0045805-0.8438377-0.0020781-1.2656193
			c-0.0019255-0.1219997,0.028966-0.1683559,0.1580896-0.1630802c0.2802086,0.0114479,0.2501326-0.0301037,0.2505884,0.2529697
			c0.0010452,0.6494198-0.0022945,1.2988625,0.0026169,1.948246c0.0009365,0.1239185-0.0272789,0.1646481-0.1630287,0.1761303
			c-0.2192736,0.018549-0.3404036-0.0601711-0.4472876-0.2501545c-0.2251205-0.4001484-0.4775753-0.7849369-0.7196417-1.1755142
			c-0.0258789-0.0417557-0.0572529-0.0801048-0.0860777-0.1200352
			C13.9757166,22.7968121,13.9647436,22.8002682,13.9537706,22.8037224z"/>
		<path d="M40.6289864,24.7125893c0.3068161,0.0193443,0.420887-0.0417881,0.5006866-0.2730446
			c0.0154648-0.0447998,0.0183945-0.1044273,0.0022545-0.1480122c-0.1676025-0.4526157-0.340168-0.903389-0.5119476-1.3544502
			c-0.007782-0.0204258-0.0212059-0.038702-0.0441437-0.0796566c-0.0336685,0.0588474-0.0575752,0.1006317-0.0818405,0.1430378
			c-0.0083199,0.002285-0.0183296,0.0087395-0.025795,0.006546c-0.3001328-0.0881729-0.4388885-0.0194855-0.4770164,0.2900181
			c-0.0345573,0.2804604-0.0212898,0.5669765-0.0261574,0.8508739c-0.0031586,0.1842384-0.0007896,0.1842861-0.1888809,0.1844959
			c-0.0331917,0.0000381-0.0668793-0.003727-0.0994759,0.000658c-0.1136971,0.015295-0.1467285-0.0331039-0.1454048-0.1450939
			c0.0054359-0.4598427,0.0022011-0.9197865,0.0023155-1.3796921c0.0000229-0.0842609-0.0200157-0.17799,0.1173134-0.1759014
			c0.2139626,0.0032558,0.2834816-0.0162983,0.2737083,0.1556892c-0.0009422,0.0166492,0.0107727,0.0340176,0.0159912,0.0492344
			c0.0154572,0.0007553,0.0300827,0.0047894,0.0323868,0.0011101c0.1434441-0.2292252,0.3435059-0.2963867,0.5983353-0.2127552
			c0.0218697,0.0071793,0.0469704,0.0051174,0.0706253,0.0061741c0.3145866,0.0140324,0.3149185,0.0138702,0.4180984,0.3189716
			c0.0832672,0.2462139,0.164978,0.4929562,0.2488861,0.7389526c0.017662,0.0517788,0.0418816,0.1013222,0.0783997,0.1884537
			c0.0405464-0.1107082,0.0696297-0.1838093,0.0942307-0.2583885c0.0918884-0.2786179,0.1871986-0.556263,0.2709236-0.8373394
			c0.0346909-0.1164589,0.0958633-0.1621895,0.2143135-0.151022c0.0789261,0.0074425,0.1591225,0.0014133,0.2571793,0.0014133
			c-0.0162201,0.0624294-0.0239601,0.1070137-0.0392494,0.1488438c-0.2160034,0.5910702-0.4317741,1.1822357-0.65028,1.7723885
			c-0.1353455,0.3655491-0.2945786,0.4891052-0.6291046,0.4888897
			C40.6264458,25.0428028,40.6391373,25.039011,40.6289864,24.7125893z"/>
		<path d="M36.2875595,19.946209c0.5633965-0.3230305,0.6723328-0.321455,1.0359421,0.023962
			c0.0370178-0.0329266,0.0756721-0.0658779,0.1127357-0.1005192c0.1633606-0.1526718,0.3614235-0.1842575,0.570179-0.1477261
			c0.2299156,0.0402336,0.3853836,0.2350407,0.3905373,0.4937496c0.0074654,0.3745708,0.0008507,0.7494049,0.0038757,1.1240959
			c0.0006866,0.0848579-0.0281563,0.1190548-0.1154938,0.1174431c-0.3447189-0.0063629-0.2957916,0.03895-0.3010826-0.2905331
			c-0.0044937-0.2795906-0.0087852-0.559206-0.0167999-0.838707c-0.0055466-0.1934586-0.0679245-0.27985-0.2104454-0.3061905
			c-0.1435204-0.0265255-0.3044319,0.0646515-0.3554649,0.2217617c-0.0330544,0.1017513-0.0486832,0.2125969-0.0517769,0.3199539
			c-0.0073738,0.2559261-0.0053024,0.5122395-0.001461,0.7683144c0.0013542,0.0904999-0.0270729,0.1278076-0.1221199,0.1256981
			c-0.3360023-0.0074596-0.2853012,0.0379276-0.2913437-0.2847614c-0.0054131-0.2889824-0.0116081-0.5779686-0.0205574-0.8668575
			c-0.0056114-0.1813087-0.0600929-0.2557201-0.197113-0.2836952c-0.1414146-0.0288696-0.3078423,0.0486851-0.3607559,0.1904812
			c-0.0372276,0.0997486-0.0562363,0.2109356-0.059597,0.3177643c-0.0083542,0.2653656-0.0065002,0.5312233-0.0015488,0.7967491
			c0.0018654,0.0998898-0.0332336,0.1330242-0.1320953,0.1304874c-0.3195076-0.0082035-0.2801819,0.0382137-0.2815742-0.2800026
			c-0.0018463-0.4221401,0.0035591-0.8443546-0.0028343-1.2664032c-0.0019417-0.1280136,0.0328369-0.1780987,0.1681976-0.1700668
			C36.2292328,19.7520218,36.2297592,19.7431755,36.2875595,19.946209z"/>
		<path d="M16.9429951,19.7444878c0.1172485,0,0.2175179-0.0101986,0.3138523,0.0048313
			c0.0406494,0.0063419,0.0926914,0.0597076,0.1059475,0.1021843c0.0887222,0.284317,0.1681385,0.5715313,0.2512093,0.8576202
			c0.0141621,0.0487747,0.0313816,0.0966606,0.0771847,0.1474476c0.0203991-0.0591164,0.0444889-0.1172466,0.0605659-0.1775169
			c0.0718575-0.2694111,0.1439152-0.5388184,0.210453-0.8095665c0.0227928-0.0927486,0.0639534-0.1316414,0.165617-0.1276188
			c0.3298664,0.0130482,0.2619591-0.0507679,0.3474045,0.2736034c0.0650177,0.2468243,0.1283264,0.4940987,0.1934547,0.7408943
			c0.0087891,0.0333118,0.0237751,0.0649891,0.0693169,0.0972404c0.060194-0.2012405,0.1206226-0.4024086,0.1804943-0.6037464
			c0.0377178-0.1268425,0.080986-0.2525101,0.1097813-0.381382c0.0219193-0.0981121,0.0712128-0.133667,0.1688061-0.1257381
			c0.083147,0.0067558,0.1672802,0.0013962,0.2712612,0.0013962c-0.0196419,0.0707932-0.0315533,0.1197834-0.0467949,0.1677132
			c-0.1490421,0.4686947-0.3012428,0.9364109-0.4460354,1.4064102c-0.0315781,0.1025047-0.0782223,0.1548653-0.1895275,0.139061
			c-0.0464725-0.0065994-0.094986-0.0046635-0.1420002-0.0003548c-0.0909081,0.0083275-0.1338253-0.0259094-0.1565647-0.1195583
			c-0.0668945-0.2754917-0.1454639-0.5481548-0.2200089-0.8217773c-0.0133686-0.0490685-0.0293407-0.0974274-0.0757599-0.1509705
			c-0.0195084,0.0532207-0.0432205,0.1053162-0.0578117,0.159853c-0.0708427,0.2647896-0.141901,0.5295811-0.2070923,0.7957916
			c-0.0235271,0.096077-0.0615826,0.1426849-0.1722031,0.1385765c-0.3429279-0.0127335-0.2594509,0.04533-0.363966-0.2680092
			c-0.1436024-0.4305248-0.274334-0.865345-0.4099236-1.2985306C16.9671078,19.8490562,16.9580994,19.804348,16.9429951,19.7444878z
			"/>
		<path d="M30.4000053,22.8228798c0.0575237-0.0361938,0.0867062-0.0499325,0.1103477-0.0701523
			c0.2075558-0.1775246,0.4394226-0.2112427,0.6883907-0.1083183c0.2569675,0.1062317,0.3920631,0.3178806,0.4188538,0.5810356
			c0.0198174,0.1946621,0.0175533,0.4014587-0.0264149,0.5908852c-0.1356735,0.5845127-0.7946663,0.7251205-1.139719,0.327713
			c-0.0140114-0.0161362-0.0345516-0.0266094-0.063858-0.0485687c-0.0075741,0.0372238-0.0181656,0.0595322-0.015276,0.0799294
			c0.017828,0.1258278-0.0342369,0.1643524-0.1593742,0.1597805c-0.2293415-0.0083828-0.2297173-0.0013885-0.2297363-0.2355385
			c-0.0000534-0.6538467,0.0032444-1.3077221-0.0026264-1.9615154c-0.0012264-0.1364422,0.0402851-0.1938477,0.1778564-0.1746635
			c0.0418339,0.0058346,0.0854092,0.0039539,0.1277485,0.0003738c0.0875072-0.0073967,0.1162701,0.0324936,0.1150208,0.1170769
			C30.3977318,22.3171444,30.4000053,22.5534554,30.4000053,22.8228798z M31.226635,23.4852676
			c-0.022522-0.1125889-0.0345707-0.2214622-0.0671368-0.3238068c-0.0446587-0.140337-0.1431694-0.2313862-0.2948437-0.2518291
			c-0.1665726-0.0224552-0.2964478,0.0393696-0.387249,0.1794548c-0.1246719,0.1923389-0.106535,0.6154423,0.0324955,0.7982941
			c0.0942898,0.1240101,0.221283,0.1763496,0.3731384,0.1514606c0.1373749-0.0225182,0.2308617-0.1115036,0.2740879-0.2398548
			C31.1913643,23.6973171,31.2045765,23.5885696,31.226635,23.4852676z"/>
		<path d="M20.9241028,23.4842815c-0.0017414,0.5230579-0.3555908,0.881321-0.8696423,0.8804817
			c-0.5540962-0.000906-0.8783607-0.3367252-0.8768959-0.908144c0.0013103-0.5110531,0.3671722-0.8682175,0.8869896-0.8659039
			C20.569418,22.5929642,20.9258347,22.9634857,20.9241028,23.4842815z M20.4883518,23.4772434
			c0-0.027689,0.0014534-0.0655746-0.0002365-0.1033192c-0.0105934-0.2364578-0.166666-0.4166698-0.3811035-0.4410057
			c-0.2335854-0.0265121-0.4221821,0.1006718-0.4751549,0.3469563c-0.0261822,0.1217232-0.0303326,0.2565384-0.0078983,0.3787174
			c0.0560322,0.3051548,0.3494205,0.4647732,0.6061916,0.3380795C20.438982,23.8936329,20.5006657,23.7069054,20.4883518,23.4772434
			z"/>
		<path d="M40.3947563,20.6065006c-0.0018311,0.522913-0.364727,0.8824177-0.8879929,0.8796902
			c-0.5371437-0.0028-0.8597374-0.34688-0.8579559-0.9150982c0.0016174-0.5160465,0.3578682-0.8590107,0.8904648-0.857254
			C40.0485229,19.715517,40.3966026,20.0787239,40.3947563,20.6065006z M39.9593544,20.6024761
			c0-0.0425739,0.0028038-0.0853653-0.0004692-0.1276875c-0.0180283-0.2331867-0.191906-0.4162769-0.4117546-0.4354763
			c-0.1962509-0.0171375-0.3928795,0.1232529-0.4403152,0.345602c-0.0278587,0.1306038-0.0328674,0.2752781-0.0080528,0.4060116
			c0.0521851,0.2749081,0.2977028,0.4176655,0.5514603,0.3441429C39.8506737,21.076992,39.9605255,20.8886185,39.9593544,20.6024761
			z"/>
		<path d="M17.2387066,24.3167114c-0.2802105,0.055521-0.3485737,0.0331688-0.4548626-0.1630497
			c-0.0386028,0.0278645-0.0761318,0.0539894-0.1126442,0.0814705c-0.1798668,0.1353779-0.3860722,0.1539726-0.5964584,0.1176872
			c-0.2105446-0.0363121-0.3575039-0.2068367-0.3758097-0.4086552c-0.0231581-0.2553139,0.0650902-0.4263611,0.2960825-0.5054264
			c0.2047901-0.0700951,0.421217-0.1055279,0.6295033-0.1665173c0.0539722-0.0158043,0.1395588-0.0748196,0.1361179-0.1056747
			c-0.0085297-0.0764618-0.0413017-0.172039-0.0982437-0.2168331c-0.1265163-0.0995197-0.394886-0.0374718-0.503952,0.0805416
			c-0.0359325,0.0388794-0.1072044,0.0618992-0.1624279,0.0621052c-0.0779305,0.0002918-0.1559639-0.0273685-0.2491913-0.0461483
			c0.0506926-0.1918316,0.1534376-0.3277245,0.3282127-0.3914833c0.2666321-0.0972691,0.5408974-0.0914993,0.808712-0.0044193
			c0.1714859,0.0557594,0.2771797,0.1768932,0.2819214,0.3685131c0.0076046,0.3072662,0.0125942,0.6146679,0.0261726,0.9216805
			C17.1973972,24.0661736,17.2224541,24.1909809,17.2387066,24.3167114z M16.7357903,23.5035
			c-0.1450367,0.0349598-0.2918453,0.0641842-0.4347878,0.1064816c-0.1522884,0.0450649-0.2196369,0.1573277-0.1860237,0.2860508
			c0.032465,0.1243305,0.1705666,0.2080574,0.311018,0.1850891C16.6641083,24.042181,16.825079,23.8948936,16.7357903,23.5035z"/>
		<path d="M28.225914,23.0467854c0.0673027-0.2761192,0.246273-0.4259548,0.5670109-0.4497032
			c0.1675739-0.0124073,0.342411,0.0019302,0.5069885,0.0369587c0.252676,0.0537796,0.3515511,0.2156239,0.3582973,0.5374813
			c0.0043736,0.2085934-0.0045776,0.4175339,0.0024586,0.6259804c0.0058365,0.172884,0.0263138,0.345274,0.0404949,0.5202236
			c-0.2565384,0.053936-0.3302021,0.0299702-0.4480534-0.1635113c-0.0379562,0.0278034-0.0751953,0.0546665-0.1120014,0.0821095
			c-0.1803112,0.1344433-0.3865337,0.1531162-0.5968189,0.1158237c-0.2070198-0.0367146-0.3544807-0.2047138-0.3724651-0.396471
			c-0.0247459-0.2638435,0.0635986-0.4379826,0.2982578-0.5183506c0.2047367-0.0701199,0.421299-0.1050396,0.6296482-0.16576
			c0.0544968-0.0158825,0.1434441-0.0800171,0.1379986-0.1045628c-0.0177746-0.0801296-0.0533085-0.1793385-0.1156673-0.2219238
			c-0.1443558-0.0985832-0.3806744-0.0360603-0.4985962,0.0968361c-0.029129,0.0328293-0.0856628,0.0614643-0.1274471,0.0587635
			C28.4080601,23.0949955,28.3215256,23.0672798,28.225914,23.0467854z M29.2060623,23.503706
			c-0.1436062,0.0347557-0.2907028,0.0644951-0.4341335,0.1066933c-0.1470661,0.0432682-0.2164249,0.1524143-0.1882267,0.2733154
			c0.030117,0.1291351,0.163372,0.2172794,0.303463,0.2007313C29.16856,24.0512085,29.3118382,23.8010941,29.2060623,23.503706z"/>
		<path d="M32.6653137,24.3646717c-0.5681152-0.0104008-0.8676205-0.361063-0.8724537-0.9025192
			c-0.0045815-0.5135269,0.3774891-0.8748741,0.8996944-0.8714275c0.4946175,0.0032635,0.8733063,0.3944817,0.866539,0.895216
			C33.5521393,24.0008678,33.1777687,24.3689346,32.6653137,24.3646717z M33.1411972,23.5111008
			c-0.0219688-0.1133881-0.0307617-0.1987934-0.0556679-0.2792072c-0.0568123-0.1834431-0.2165527-0.3005524-0.401516-0.3045158
			c-0.1864357-0.0039959-0.341629,0.1054668-0.4113426,0.2898922c-0.0663681,0.1755791-0.0640526,0.3522892-0.0012054,0.5271015
			c0.0617065,0.1716347,0.1889076,0.2733536,0.3680878,0.2917404c0.1624756,0.0166721,0.3059044-0.0471325,0.3848877-0.190506
			C33.0841179,23.7372723,33.1082573,23.6093597,33.1411972,23.5111008z"/>
		<path d="M24.0651894,24.1481113c-0.18713,0.1658287-0.3928337,0.2387714-0.6331768,0.2161865
			c-0.2380238-0.0223675-0.4298306-0.1900539-0.4647465-0.4259663c-0.0312481-0.2111263,0.0933056-0.4297886,0.311409-0.501749
			c0.201334-0.0664291,0.4113274-0.1064663,0.6171646-0.1594658c0.0711727-0.0183258,0.1546097-0.0206451,0.1518307-0.1313019
			c-0.0026722-0.1064129-0.0426426-0.1825962-0.1448536-0.2206001c-0.1692486-0.062933-0.356493-0.0113468-0.4734421,0.1231937
			c-0.0242691,0.0279179-0.0695667,0.058054-0.1018066,0.0547123c-0.097168-0.0100727-0.1926785-0.0361404-0.2887688-0.0559578
			c0.0584812-0.2806892,0.2648239-0.4403515,0.597353-0.4531574c0.1455135-0.0056019,0.2938633,0.00564,0.4378033,0.0287037
			c0.2404747,0.0385303,0.3699055,0.1972122,0.3775043,0.4436474c0.0103645,0.3360405,0.0151386,0.6722794,0.0284462,1.0081902
			c0.0030842,0.0777817,0.031002,0.1545792,0.0473518,0.2311707C24.2824135,24.380846,24.1609211,24.3448315,24.0651894,24.1481113z
			 M24.0254574,23.5025501c-0.1493206,0.0350132-0.2916832,0.0632992-0.4310169,0.1023865
			c-0.1651554,0.0463276-0.2282543,0.1472149-0.1950665,0.2923717c0.0293446,0.1283569,0.1739559,0.2087078,0.324337,0.1802082
			C23.9852276,24.0279541,24.0875568,23.8444595,24.0254574,23.5025501z"/>
		<path d="M38.4204865,24.3647594c-0.6011162-0.0125103-0.869072-0.3834858-0.8763657-0.9025402
			c-0.0072289-0.5142193,0.3784523-0.8756332,0.9032097-0.8714867c0.4901886,0.0038738,0.8633423,0.3880272,0.8623695,0.8877869
			C39.3087006,23.9939823,38.9332733,24.3681526,38.4204865,24.3647594z M37.9654541,23.4810219
			c0.0163307,0.0830765,0.0246353,0.1687679,0.0506554,0.2486916c0.0560341,0.1721592,0.1786308,0.2799244,0.3576622,0.304945
			c0.1623116,0.0226841,0.3052177-0.0371456,0.3931694-0.1752472c0.1460495-0.2293339,0.1576996-0.4807777,0.02174-0.7123051
			c-0.0548019-0.0933189-0.1776543-0.1794281-0.2842407-0.203371C38.1989212,22.875103,37.975605,23.1133232,37.9654541,23.4810219z
			"/>
		<path d="M35.9411278,24.1435356c-0.1803093,0.1686764-0.3815918,0.2407055-0.6174927,0.2211628
			c-0.2341347-0.0193977-0.425869-0.1666756-0.4610329-0.3716946c-0.047699-0.2781219,0.0527611-0.4781895,0.3098335-0.5637741
			c0.1965256-0.0654278,0.4041939-0.0967522,0.6032867-0.1555138c0.0560532-0.0165424,0.1314392-0.0695343,0.1416931-0.1177692
			c0.0203781-0.09585-0.0217628-0.184166-0.1271973-0.2266998c-0.1664009-0.0671291-0.3643074-0.0174046-0.4854202,0.121418
			c-0.0222282,0.0254784-0.0615616,0.0561562-0.0894203,0.0529861c-0.1010437-0.0114975-0.2005653-0.036377-0.3104897-0.0581551
			c0.0644226-0.2322216,0.2007332-0.3861504,0.417572-0.4160385c0.2119598-0.0292168,0.4338188-0.0266666,0.6464958,0.0002136
			c0.2283783,0.0288639,0.3427773,0.1761723,0.3544998,0.4119015c0.0154991,0.3115597,0.0140228,0.6239395,0.0273933,0.9356441
			c0.0047913,0.1116047,0.0315552,0.2222652,0.04842,0.3342171C36.1514015,24.3802414,36.0393524,24.3456764,35.9411278,24.1435356z
			 M35.8959694,23.5042648c-0.1403503,0.0325241-0.2820206,0.0603771-0.4207611,0.0988064
			c-0.1619034,0.0448418-0.2349281,0.1554031-0.2029037,0.2899132c0.0307426,0.1291294,0.173996,0.211832,0.3226433,0.1862659
			C35.8644066,24.0329037,35.9684677,23.842659,35.8959694,23.5042648z"/>
		<path d="M16.8809299,21.4684601c-0.1665363-0.0584927-0.3907661,0.1102734-0.454319-0.200861
			c-0.0532227,0.0342255-0.0950699,0.059412-0.1351223,0.0871849c-0.1955185,0.1355705-0.4086237,0.1683941-0.6351824,0.1025829
			c-0.2006674-0.0582905-0.3330507-0.2296448-0.3479261-0.4385414c-0.0136194-0.1912193,0.1004295-0.3895798,0.296382-0.4565468
			c0.2045746-0.0699139,0.4192209-0.1103096,0.6293535-0.164032c0.0829201-0.0212002,0.1699085-0.033884,0.1561737-0.157486
			c-0.0126972-0.1142597-0.0673904-0.1869125-0.180027-0.2045784c-0.173481-0.0272102-0.3419962-0.0357742-0.4490671,0.1500244
			c-0.0135384,0.0234947-0.0719128,0.0333843-0.1073809,0.0296001c-0.0886059-0.0094547-0.1759825-0.030407-0.2632771-0.0466366
			c0.0182304-0.2294712,0.1898632-0.4069462,0.4775591-0.4402218c0.1940012-0.02244,0.397893-0.009304,0.5910635,0.0242119
			c0.2200565,0.0381813,0.3270454,0.1898823,0.3347473,0.4149742c0.0113258,0.3309956,0.0142822,0.6623058,0.028286,0.9931641
			C16.8260994,21.2535381,16.8563728,21.3446598,16.8809299,21.4684601z M16.3856335,20.6101742
			c-0.1858501,0.0490341-0.3503704,0.0861683-0.5105486,0.1369839c-0.1007042,0.03195-0.1635656,0.1195488-0.1307411,0.2201385
			c0.0260372,0.0797901,0.0865641,0.1737709,0.15765,0.2085133c0.1924486,0.0940552,0.4540758-0.0638103,0.481885-0.2776756
			C16.3946304,20.8154678,16.3856335,20.7302341,16.3856335,20.6101742z"/>
		<path d="M27.5260887,21.009079c-0.0902634,0.2768955-0.3191051,0.4518452-0.6016521,0.4754486
			c-0.7490311,0.0625744-0.9901714-0.4808292-0.9284859-1.0263062c0.0374966-0.3315811,0.1821671-0.6008415,0.510746-0.7052689
			c0.4486408-0.1425877,0.9521847,0.0300217,1.0424786,0.6309967c0.0541439,0.3603725,0.1128139,0.3328896-0.2897415,0.3322048
			c-0.2418995-0.0004101-0.4838314,0.0022831-0.7256832-0.0010414c-0.0983295-0.0013523-0.1227283,0.0333595-0.1007385,0.1291561
			c0.0562763,0.2451458,0.2598648,0.386652,0.4795856,0.3211365c0.0394917-0.011776,0.0937939-0.0294628,0.1084805-0.0601234
			C27.1466618,20.8431492,27.3400307,20.9956341,27.5260887,21.009079z M26.7957973,20.4731712
			c0-0.0006905,0.0000019-0.0013809,0.0000019-0.0020695c0.0852032,0,0.1704044-0.0001698,0.2556076,0.0000477
			c0.0816059,0.0002098,0.1045532-0.0435143,0.0970592-0.1190681c-0.0168419-0.1697865-0.1515484-0.310051-0.3209209-0.3291874
			c-0.1617775-0.0182781-0.3210506,0.0855446-0.3740749,0.2438412c-0.0560226,0.1672459-0.0310173,0.2035599,0.143486,0.2062683
			C26.6632214,20.4740314,26.7295151,20.4731712,26.7957973,20.4731712z"/>
		<path d="M22.1725521,21.0077362c-0.0569248,0.2644138-0.3114548,0.458622-0.6027622,0.4772167
			c-0.5840607,0.0372829-0.9143753-0.2667217-0.91922-0.8535576c-0.000967-0.1171379,0.0077915-0.2382164,0.0369587-0.3510437
			c0.0987473-0.381958,0.384882-0.578104,0.8064156-0.5668659c0.3522263,0.0093899,0.6238041,0.2452106,0.7030087,0.6104565
			c0.0850372,0.392128,0.0850372,0.3917694-0.3135853,0.3922596c-0.2511711,0.0003071-0.502346,0.0017891-0.7535152,0.0033054
			c-0.0086594,0.0000515-0.0172825,0.0061474-0.025877,0.0095444c-0.0689316,0.1661453,0.0875683,0.3715248,0.2205696,0.4242249
			c0.1709366,0.0677299,0.3164902,0.0162067,0.428772-0.1415634c0.022253-0.0312672,0.0796223-0.0558147,0.118763-0.0531845
			C21.9696846,20.9650898,22.0661163,20.9890747,22.1725521,21.0077362z M21.4460163,20.4720764
			c0.0849667,0,0.1699429-0.0008335,0.2548943,0.0002422c0.0793934,0.0010071,0.1050167-0.0346508,0.0989876-0.1142788
			c-0.0141926-0.187521-0.1667442-0.3381004-0.3528538-0.3386841c-0.1785011-0.0005569-0.3346252,0.1434269-0.3556061,0.3219509
			c-0.0106201,0.090374,0.0206814,0.1337261,0.1138515,0.1312542
			C21.2854805,20.4704323,21.3657684,20.4721184,21.4460163,20.4720764z"/>
		<path d="M34.4328537,21.0074806c-0.0685959,0.2730579-0.3277092,0.461401-0.6290321,0.4785748
			c-0.7420082,0.0422859-0.9690094-0.5015602-0.8921318-1.0737114c0.0420494-0.3129368,0.19664-0.5648308,0.5091248-0.660635
			c0.4687233-0.1437016,0.9833488,0.0503139,1.0470009,0.6915512c0.0309982,0.3122807,0.0359955,0.2713699-0.2468414,0.2725449
			c-0.2883873,0.0011997-0.5767822,0.0002651-0.8614845,0.0002651c-0.0406113,0.1820278,0.0499229,0.3598423,0.2078247,0.4303131
			c0.172226,0.0768661,0.3338432,0.034111,0.4304581-0.1251831c0.0382767-0.0631084,0.0707779-0.0863705,0.1464958-0.0647812
			C34.2374725,20.9829903,34.3359108,20.9912033,34.4328537,21.0074806z M33.7062645,20.4714355
			c0.0000038,0.0003071,0.0000038,0.0006161,0.0000038,0.0009251c0.0802307,0,0.1604729-0.0008297,0.2406883,0.0002079
			c0.1015053,0.0013142,0.1326637-0.0444965,0.1090584-0.1429005c-0.0465012-0.1938496-0.1892166-0.3164864-0.3676682-0.3082123
			c-0.1797867,0.0083351-0.3148842,0.1406136-0.3475723,0.3332233c-0.0139351,0.082119,0.0201569,0.1154404,0.0965157,0.1164722
			C33.5269356,20.4723625,33.6166077,20.4714355,33.7062645,20.4714355z"/>
		<path d="M21.5861435,22.8403568c0.1345692-0.0765762,0.2553349-0.1755447,0.3934917-0.2182674
			c0.4203472-0.1299801,0.7301121,0.1019821,0.7362499,0.536953c0.0048141,0.3411922-0.0014172,0.6825714,0.0058651,1.0236835
			c0.0025539,0.1196728-0.0393925,0.1554832-0.1559258,0.1518173c-0.2943649-0.0092545-0.2537975,0.0294056-0.2559814-0.2606678
			c-0.0018883-0.2511902,0.0014229-0.5024319-0.0018692-0.7535934c-0.0036907-0.2816143-0.0993996-0.4092484-0.3014507-0.411993
			c-0.2395248-0.003252-0.391819,0.1489677-0.3998833,0.418396c-0.0082207,0.2746696-0.0109558,0.5500488-0.000351,0.8245087
			c0.0055218,0.1429157-0.0336571,0.1912022-0.1811371,0.1841583c-0.2850151-0.0136108-0.2519836,0.02808-0.2527676-0.2507362
			c-0.0011997-0.4265671,0.0054588-0.8532619-0.0035458-1.2796421c-0.0030193-0.1430359,0.0491104-0.1888409,0.1808052-0.1726227
			c0.0280209,0.0034504,0.0569973,0.0027409,0.0852203,0.0003109c0.1022243-0.0088062,0.1521664,0.0316525,0.140419,0.1391258
			C21.5725479,22.7968102,21.5831814,22.8232937,21.5861435,22.8403568z"/>
		<path d="M22.8947563,19.9960079c0.0605583-0.0542164,0.0982037-0.087532,0.1354275-0.1213131
			c0.1722946-0.1563663,0.3789291-0.1916256,0.5970764-0.1500301c0.2582016,0.0492344,0.3926601,0.2134476,0.3979301,0.4790211
			c0.0074272,0.3743477,0.0045052,0.7488918,0.0099468,1.1232948c0.0014343,0.0985699-0.0360985,0.132988-0.1344891,0.1307869
			c-0.3319035-0.0074196-0.2770481,0.0342979-0.2804222-0.2782288c-0.0028133-0.2606945,0.0013275-0.521471-0.0023518-0.7821445
			c-0.0033092-0.2346096-0.0997162-0.3617744-0.2793026-0.380743c-0.1903172-0.0201054-0.3760033,0.1113453-0.3955669,0.3236332
			c-0.0277119,0.3007355-0.0196266,0.6046638-0.0316486,0.9070358c-0.0024433,0.0614338-0.0187798,0.1712017-0.0414715,0.1746483
			c-0.1094398,0.0166168-0.2237625,0.0093384-0.3349438-0.0025883c-0.016983-0.0018234-0.0377216-0.0722408-0.0379353-0.1110363
			c-0.0026512-0.4787655-0.0004101-0.9575577-0.0030003-1.4363232c-0.0005398-0.0997963,0.0408382-0.1383858,0.137207-0.1284008
			c0.0328312,0.0034008,0.0667629,0.0040531,0.099411-0.0001316c0.1143074-0.0146503,0.1718216,0.025732,0.1542702,0.1482735
			C22.8817177,19.9139214,22.888792,19.9375496,22.8947563,19.9960079z"/>
		<path d="M28.6314297,20.2878227c-0.0000076-0.3410835,0.0036316-0.6822281-0.002058-1.0232182
			c-0.0018921-0.1133938,0.0286961-0.1622963,0.150568-0.1596642c0.3742008,0.0080833,0.3064327-0.0308266,0.3090115,0.3096714
			c0.0037651,0.4973869,0.00741,0.9949551-0.0029087,1.492157c-0.0031261,0.1507359,0.0469494,0.1828079,0.1853676,0.1782665
			c0.2933922-0.0096302,0.5874043,0.0009575,0.8809948-0.0049534c0.106432-0.002142,0.1485081,0.0341263,0.1375275,0.1390324
			c-0.0049057,0.0468769,0.0108242,0.0991707-0.0048389,0.1406994c-0.0142803,0.0378666-0.0580044,0.0916557-0.0893078,0.0920315
			c-0.4878693,0.0058613-0.9758339,0.0030689-1.4637642,0.0051556c-0.0990868,0.0004234-0.1011887-0.0599861-0.1009979-0.1317158
			C28.6319447,20.9794674,28.6314392,20.6336441,28.6314297,20.2878227z"/>
		<path d="M26.3825169,23.1481934c0-0.3367023,0.0034828-0.6734638-0.0020046-1.0100765
			c-0.0017738-0.1088009,0.0272484-0.1528111,0.1438198-0.1493187c0.3805084,0.0114002,0.3127117-0.0472546,0.3156013,0.314743
			c0.0040169,0.5026512,0.0056877,1.0054302-0.0021515,1.5079918c-0.002039,0.1306763,0.0472031,0.1621647,0.163641,0.1604481
			c0.2892151-0.004261,0.5788651,0.00704,0.8676872-0.0044041c0.1589413-0.0062962,0.1739788,0.0680618,0.1749744,0.1971874
			c0.0009766,0.1269646-0.0309525,0.1734276-0.1671009,0.1708488c-0.4503555-0.0085297-0.9010181-0.0066586-1.3514614-0.0008602
			c-0.1149216,0.0014782-0.1469078-0.0375881-0.1450958-0.1480312
			C26.3861122,23.8406277,26.3825169,23.494381,26.3825169,23.1481934z"/>
		<path d="M13.5423441,20.2740631c-0.000001-0.3364735,0.0053616-0.6730785-0.0027275-1.0093575
			c-0.0030918-0.1285286,0.0432739-0.1628971,0.1644106-0.1599426c0.3130064,0.0076294,0.281354-0.0220108,0.2820196,0.2860184
			c0.0010862,0.5023403,0.0031958,1.0047112-0.0015497,1.5070095c-0.0012589,0.1332722,0.027751,0.1951733,0.1814098,0.1881809
			c0.2932148-0.0133476,0.5875883,0.0009575,0.8812351-0.0062313c0.1174307-0.0028744,0.1576576,0.0329094,0.1541939,0.15238
			c-0.0064898,0.2238998-0.0002022,0.224102-0.2221136,0.2241058c-0.4312563,0.0000114-0.8625612-0.0035057-1.2937374,0.0023518
			c-0.1137409,0.0015469-0.1474047-0.0347557-0.1454-0.1466961C13.5462761,20.9660397,13.542345,20.6200161,13.5423441,20.2740631z"
			/>
		<path d="M25.865324,20.2212734c-0.1098824,0.0229816-0.2096252,0.052187-0.3111076,0.0607204
			c-0.0375633,0.0031586-0.0941296-0.0326424-0.1164188-0.0671978c-0.0968685-0.1501675-0.2040653-0.2080078-0.3824215-0.1781464
			c-0.1553841,0.0260143-0.2695618,0.1185265-0.28689,0.2744789c-0.0195351,0.1758137-0.0244961,0.3582134,0.0001755,0.5326614
			c0.028059,0.1984024,0.1604652,0.2948132,0.3525467,0.3079548c0.1570473,0.0107441,0.2598457-0.0658169,0.3454342-0.2405357
			c0.0158043-0.0322609,0.071291-0.0659809,0.106411-0.0639305c0.1021805,0.0059662,0.2033195,0.0297375,0.3036766,0.0463295
			c-0.0238686,0.321825-0.3025799,0.5715256-0.6451588,0.5921211c-0.351799,0.0211506-0.6646767-0.0605621-0.8244362-0.4017258
			c-0.1750774-0.3738823-0.1662178-0.7538719,0.0826359-1.1034317c0.2675762-0.3758564,1.1512165-0.4050446,1.3491554,0.1514206
			C25.8481026,20.1577911,25.8545532,20.1845589,25.865324,20.2212734z"/>
		<path d="M31.1128273,19.7444115c0.1291676,0,0.2390804-0.0110397,0.3448029,0.0052032
			c0.0449371,0.0069046,0.1002369,0.0636005,0.1181431,0.1102219c0.1168613,0.3042927,0.2245789,0.612093,0.3357983,0.91856
			c0.0141029,0.0388584,0.0311909,0.0766296,0.0598183,0.1463985c0.0301895-0.0597057,0.0511436-0.0926609,0.0642891-0.1284809
			c0.1107101-0.3017101,0.2238541-0.6026268,0.3276787-0.9067154c0.038105-0.1116085,0.09552-0.1627331,0.2164497-0.147356
			c0.0785713,0.0099907,0.1594467,0.0018806,0.2631378,0.0018806c-0.0344276,0.0943661-0.0607719,0.1722164-0.0909996,0.2485294
			c-0.1793823,0.4528427-0.3619843,0.9044323-0.5376434,1.3587074c-0.0342979,0.0886917-0.0881462,0.1192741-0.1723976,0.1038475
			c-0.1010723-0.0185032-0.2308941,0.0639935-0.2934303-0.0936871c-0.2021999-0.5098495-0.4093227-1.017746-0.6139584-1.5266304
			C31.1261272,19.8140278,31.1237106,19.7907658,31.1128273,19.7444115z"/>
		<path d="M17.9650097,22.0395393c0,0.1634007,0.0050983,0.2947369-0.0015144,0.4254818
			c-0.0059414,0.1174679,0.0304832,0.186739,0.1584415,0.1708755c0.1589527-0.0197048,0.1560116,0.0781155,0.1610909,0.1932526
			c0.0061436,0.1392918-0.07304,0.1465225-0.1710892,0.1349068c-0.1117496-0.013237-0.1524372,0.0317993-0.1495724,0.1432533
			c0.0057259,0.2227497-0.0001926,0.4457722,0.0031929,0.6686153c0.0032845,0.2164097,0.029377,0.2362556,0.2429829,0.2433071
			c0.0313854,0.0010357,0.0813122,0.0457211,0.087595,0.0772076c0.013504,0.0676632,0.0041447,0.1398888,0.0041447,0.2505856
			c-0.1591625,0.0020962-0.3236713,0.0231514-0.4822254,0.0011997c-0.1689587-0.0233936-0.258255-0.1628838-0.261116-0.3575058
			c-0.0043201-0.2939701-0.0047913-0.5880566-0.001812-0.88204c0.0009766-0.0962963-0.0178089-0.1566238-0.1321278-0.1448841
			c-0.090826,0.0093269-0.1015739-0.0571136-0.0915775-0.1222897c0.0112553-0.0733986-0.0543976-0.1854477,0.0851192-0.2026711
			c0.0758877-0.009367,0.1544342-0.0185719,0.1348839-0.118803c-0.0407772-0.2090683,0.0700626-0.3140049,0.2421913-0.3865128
			C17.8409634,22.1135731,17.884346,22.084219,17.9650097,22.0395393z"/>
		<path d="M37.1231728,22.0395393c0,0.1645775,0.0054131,0.2961178-0.0015984,0.4269924
			c-0.0063591,0.1186504,0.0325203,0.1852188,0.1590614,0.1693554c0.1612473-0.0202141,0.1523552,0.0814171,0.1586761,0.1940422
			c0.0079155,0.1410389-0.0736122,0.1453934-0.1705399,0.1340466c-0.1126404-0.0131855-0.1511154,0.0333881-0.1482925,0.1439495
			c0.0058022,0.2271519-0.0004616,0.4545898,0.0035477,0.6818161c0.003582,0.20294,0.0343781,0.225338,0.2407684,0.229744
			c0.0318565,0.000679,0.0836334,0.0436726,0.090641,0.0750408c0.0450935,0.2018452-0.0007973,0.2580395-0.2054596,0.2678947
			c-0.0566826,0.0027294-0.1136856,0.004015-0.1703377,0.0014782c-0.2298203-0.0102863-0.3589478-0.136097-0.3636513-0.3670139
			c-0.0058784-0.2887459-0.0044174-0.5776787-0.0029068-0.8665123c0.000515-0.0981464,0.0013084-0.1830215-0.1385765-0.1674271
			c-0.0933952,0.0104122-0.0934944-0.0651817-0.0849533-0.1266098c0.0101547-0.0730305-0.0540199-0.1894264,0.0886307-0.197134
			c0.1041679-0.0056267,0.1503944-0.0513649,0.1329422-0.1509876c-0.0292664-0.167099,0.0445976-0.2663383,0.1935806-0.3282623
			C36.9691505,22.1331635,37.0279198,22.0927124,37.1231728,22.0395393z"/>
		<path d="M35.1431923,19.975153c0.2745361-0.2966652,0.4185448-0.3348351,0.6661797-0.1782284
			c-0.0377312,0.1060734-0.0765762,0.2152901-0.1174774,0.3302898c-0.0319176-0.0070934-0.0543137-0.0107899-0.0759621-0.0170784
			c-0.2381821-0.0692005-0.4023705,0.0208931-0.4280624,0.2665501c-0.0279388,0.2671795-0.0269203,0.5376205-0.0332718,0.8067646
			c-0.0073433,0.3112583,0.040535,0.2624054-0.2706833,0.2758198c-0.1387024,0.0059795-0.1653862-0.0467052-0.1636314-0.1720085
			c0.006424-0.4592056,0.0071793-0.9186325-0.0003929-1.3778038c-0.0021591-0.1312141,0.0353889-0.1864738,0.1675301-0.165844
			c0.0231133,0.0036068,0.0477142,0.0034809,0.0708733,0.0000172c0.1279297-0.0191383,0.1890297,0.0279675,0.1682396,0.1628761
			C35.1240616,19.9225597,35.1343498,19.9405766,35.1431923,19.975153z"/>
		<path d="M25.2224045,23.1495876c0,0.3409443-0.0046864,0.6819859,0.0024967,1.0227776
			c0.0025806,0.1223621-0.0307102,0.167738-0.1590176,0.1626549c-0.2831936-0.0112209-0.2520866,0.0295181-0.2525635-0.250267
			c-0.0011101-0.648737,0.003088-1.2975101-0.0031662-1.9461899c-0.0012913-0.1339626,0.032793-0.1971226,0.1730995-0.174715
			c0.0230885,0.0036869,0.047699,0.0034466,0.0708752,0.0000401c0.127552-0.0187454,0.1748009,0.027853,0.1712456,0.1629486
			C25.2164116,22.4675446,25.2224064,22.8086452,25.2224045,23.1495876z"/>
		<path d="M34.2025681,22.8664532c0.0391273-0.0497036,0.0660324-0.084877,0.0939751-0.1192055
			c0.1266518-0.1556091,0.300396-0.202486,0.4825363-0.1186981c0.0319405,0.0146923,0.0665588,0.0788002,0.0597801,0.1118431
			c-0.0186958,0.0910816-0.0586815,0.1777916-0.0928383,0.2734795c-0.048748-0.0151482-0.0879021-0.0296574-0.1282082-0.0394249
			c-0.1558495-0.0377674-0.2870941,0.0226631-0.341465,0.1772289c-0.0354424,0.1007462-0.054966,0.2112217-0.0587349,0.3181458
			c-0.0086746,0.2462215-0.0063477,0.4929829-0.0022202,0.7394199c0.001545,0.0921535-0.0298119,0.1263485-0.1232109,0.124464
			c-0.3714828-0.0074997-0.3052788,0.0408535-0.308342-0.2923527c-0.0037537-0.4076614-0.0012932-0.8153839-0.0005684-1.2230778
			c0.0001526-0.0867786-0.0262756-0.1836147,0.1212387-0.1873989c0.2282028-0.0058537,0.2391548-0.0055847,0.2680283,0.1620407
			C34.1754837,22.8100109,34.1856804,22.8258572,34.2025681,22.8664532z"/>
		<path d="M20.5622368,20.119154c-0.0243855,0.002039-0.0293808,0.003767-0.033596,0.0026207
			c-0.3200035-0.0870476-0.4773445,0.0273514-0.4903889,0.3614197c-0.0108833,0.2787075-0.0213642,0.5575733-0.0229816,0.836422
			c-0.0006084,0.1046352-0.0332279,0.1414356-0.1394043,0.1384735c-0.3149128-0.0087814-0.2702427,0.0347061-0.2718048-0.2725468
			c-0.0021877-0.4307632,0.0031967-0.8616009-0.0029373-1.2922878c-0.0017071-0.1198368,0.0384769-0.1554813,0.1549702-0.1514969
			c0.1998081,0.006834,0.2000198,0.0006256,0.249155,0.2404881c0.0454216-0.0515461,0.0807858-0.0910492,0.1154633-0.1311455
			c0.1214085-0.1403809,0.2706642-0.1759434,0.4483948-0.1160564c0.086298,0.0290775,0.1145096,0.0708809,0.0754852,0.1580544
			C20.6120892,19.9657021,20.5896091,20.0427895,20.5622368,20.119154z"/>
		<path d="M41.5945168,20.1279125c-0.0633011-0.0152645-0.1081467-0.030962-0.1541977-0.0363522
			c-0.2151031-0.0251751-0.3499069,0.1010609-0.363018,0.3523598c-0.0148048,0.2837772-0.0256157,0.5681171-0.0249519,0.8521824
			c0.0002899,0.1223774-0.030983,0.1680508-0.1596146,0.162756c-0.2796516-0.0115147-0.2519302,0.0319939-0.2526054-0.2516022
			c-0.0010185-0.4270058-0.0012207-0.8540192,0.0005684-1.2810192c0.000351-0.08325-0.0346603-0.1889095,0.1197319-0.183815
			c0.2574615,0.0084934,0.2671165-0.0223598,0.260704,0.1718884c-0.0004311,0.0131702,0.0072403,0.0266075,0.018898,0.0663757
			c0.0454521-0.0507202,0.0810051-0.089077,0.1151123-0.128685c0.1228142-0.1426392,0.2866783-0.1803188,0.4629059-0.1125221
			c0.0714874,0.0275021,0.0995216,0.0629673,0.0672188,0.1392555
			C41.6523056,19.9565544,41.6270027,20.0376167,41.5945168,20.1279125z"/>
		<path d="M18.4954815,23.4899426c0.0000343-0.2413406,0.0034294-0.4827499-0.0016041-0.7239838
			c-0.0020676-0.0991631,0.0356293-0.1357651,0.1324081-0.1337414c0.3547897,0.0074158,0.2954941-0.0554047,0.2982979,0.2818871
			c0.0034618,0.4164009-0.0031223,0.8329124,0.003231,1.2492447c0.0019093,0.125124-0.02631,0.1779728-0.1646118,0.1720734
			c-0.3066635-0.0130768-0.2648849,0.0327854-0.2674408-0.2634296C18.4940872,23.8779888,18.4954453,23.68396,18.4954815,23.4899426
			z"/>
		<path d="M30.9430542,20.6154118c-0.000021,0.2317619-0.0044575,0.4636459,0.0019302,0.6952305
			c0.0030022,0.1088409-0.0274258,0.151907-0.1437454,0.1479034c-0.3024826-0.010416-0.2661762,0.03438-0.2672997-0.2634926
			c-0.0016232-0.4304085,0.0035114-0.8608856-0.0028839-1.2912045c-0.0018177-0.1222382,0.0309601-0.1674385,0.1589832-0.1623325
			c0.2821827,0.0112534,0.2513103-0.0304356,0.2528114,0.2495594C30.9439659,20.1991825,30.9430733,20.407299,30.9430542,20.6154118
			z"/>
		<path d="M18.7176075,21.9499626c0.0653076,0.0168648,0.1767654,0.0196609,0.1870213,0.0533047
			c0.0275784,0.0904808,0.014904,0.1942692,0.01054,0.2924328c-0.0007324,0.0164604-0.0379333,0.0394974-0.0615902,0.0448284
			c-0.0361404,0.0081463-0.0751572,0.0040722-0.112957,0.0042248c-0.2470741,0.0009956-0.2345657,0.0001202-0.2489262-0.2270489
			C18.4790592,21.9177742,18.6101742,21.9710941,18.7176075,21.9499626z"/>
		<path d="M30.7335091,19.4653339c-0.1999073-0.0000801-0.1999073-0.0000801-0.1999779-0.1868801
			c-0.0000725-0.19133-0.0000725-0.19133,0.2101555-0.1912632c0.1998615,0.000061,0.1998615,0.000061,0.199379,0.2013416
			C30.9426422,19.4654198,30.9426422,19.4654198,30.7335091,19.4653339z"/>
	</g>
</g>
</svg>
