<svg id="Layer_1" data-name="Layer 1" xmlns="http://www.w3.org/2000/svg" viewBox="0 0 50 50"><defs><style>.cls-1{fill:#231f20;}</style></defs><title>companies</title><g id="kpjHgZ.tif"><path d="M18.83,1.57c.43,1.55.86,3.1,1.28,4.66a.37.37,0,0,1,0,.23c-.2.35-.41.7-.62,1a.15.15,0,0,0,0,.18c.21.34.42.7.63,1.05a.32.32,0,0,1,0,.19c-.42,1.53-.84,3.06-1.27,4.59a.2.2,0,0,1,0,.08l-.7-.18L14,12.34a.3.3,0,0,1-.15-.12c-.21-.35-.42-.7-.62-1.05a.17.17,0,0,0-.18-.11h-1.2A.32.32,0,0,1,11.6,11L8.23,7.69a.48.48,0,0,0-.11-.09v0l.13-.1,3.37-3.28a.29.29,0,0,1,.23-.09h1.23A.17.17,0,0,0,13.25,4c.2-.35.4-.71.61-1A.3.3,0,0,1,14,2.82l4.08-1.06.64-.19ZM17.07,11.79l0-.08L15,8.25a.17.17,0,0,0-.18-.09H10.65l-.05.06s.1,0,.13.07C11.47,9,12.22,9.75,13,10.5a1.46,1.46,0,0,0,.88.48l.08,0Zm1.05-.6s0-.07,0-.08c.33-1.13.65-2.26,1-3.38a.51.51,0,0,0,0-.3c-.22-.79-.45-1.58-.67-2.37-.11-.36-.21-.71-.32-1.1L18,4.11c-.67,1.11-1.33,2.22-2,3.33a.24.24,0,0,0,0,.28c.63,1,1.25,2.08,1.87,3.13ZM10.65,7H14.8A.18.18,0,0,0,15,6.87c.67-1.13,1.34-2.26,2-3.39L17,3.37H17l-3.59.91a.32.32,0,0,0-.16.09L11.48,6.11C11.2,6.39,10.93,6.68,10.65,7Z"/><path d="M41.34,5.31l-.09.19L39.6,10.3c-.06.17-.14.34-.22.51a1.31,1.31,0,0,1-1.21.8h-1v-1h.53a.58.58,0,0,0,.61-.72,3.58,3.58,0,0,0-.2-.78L36.77,5.38s0-.09-.06-.15c.41,0,.8,0,1.19,0a.14.14,0,0,1,.1.08l1,3,0,.13c0-.09,0-.14.06-.19.25-.82.49-1.64.74-2.46,0-.16.1-.32.16-.48s.06-.09.1-.09h1.2Z"/><path d="M28.54,10H27.37V5.24h1.14v.65l.1-.11a1.64,1.64,0,0,1,1.82-.62,1.57,1.57,0,0,1,1.16,1.42,3,3,0,0,1,0,.43v3H30.44V9.87c0-.9,0-1.8,0-2.7a.85.85,0,0,0-.76-1,.94.94,0,0,0-1.1.78,1.71,1.71,0,0,0,0,.39c0,.82,0,1.64,0,2.46Z"/><path d="M26.76,10H25.64V9.46l-.1.11a1.57,1.57,0,0,1-1.57.59,1.49,1.49,0,0,1-1.4-1.54c0-1,0-2,0-3,0-.13,0-.25,0-.38h1.17V8.15a1.34,1.34,0,0,0,0,.35.81.81,0,0,0,.9.59.92.92,0,0,0,.89-.88,4.24,4.24,0,0,0,0-.51V5.24h1.17Z"/><path d="M36.36,5.24v.84h-.74c0,.06,0,.1,0,.15V8.57a1,1,0,0,0,0,.23.31.31,0,0,0,.29.27l.45,0V10A2.75,2.75,0,0,1,35,9.87.93.93,0,0,1,34.45,9c0-.92,0-1.84,0-2.76V6.08h-.65V5.23h.65V3.74h1.17v1.5Z"/><path d="M32.26,5.23h1.15V10H32.26Z"/><path d="M33.41,3.74v1H32.25v-1Z"/></g><g id="_4gxJan.tif" data-name="4gxJan.tif"><path d="M30.53,27.39v1.3h-9v-9h9v1.26H22.86v6.47Z"/><path d="M8.29,20.93V19.65h9v9h-9V27.42H16V20.93Z"/><path d="M41.17,19.6v1.33h-9V19.6Z"/><path d="M32.13,28.69V27.37h9v1.32Z"/><path d="M41.18,23.51V24.8h-9V23.51Z"/><path d="M18.71,19.63H20v9H18.71Z"/><path d="M27.72,32.16v-.31c.28,0,.71,0,1.05,0,0,.3,0,.59,0,.87a.41.41,0,0,1-.19.24,1.41,1.41,0,0,1-1.88-.16,1.67,1.67,0,0,1,.06-2c.57-.6,1.8-.46,2,.39l-.23.12c-.29-.52-.51-.65-1-.58a.92.92,0,0,0-.74.85c-.16.83.32,1.43,1.09,1.36.5,0,.67-.25.62-.81"/><path d="M24.75,32.69c0-.78,0-1.48,0-2.16H25l0,.2c0,.8,0,1.6,0,2.41a.32.32,0,0,1-.46-.16,18.2,18.2,0,0,0-1.25-1.85v1.79c0,.18,0,.32-.28.24V30.44h.36"/><path d="M11.27,31.83c0-1,.75-1.61,1.63-1.3a1.24,1.24,0,0,1,.81,1.21,1.33,1.33,0,0,1-.61,1.34,1.14,1.14,0,0,1-1.31,0A1.32,1.32,0,0,1,11.27,31.83Zm2.11,0c0-.63-.29-1.05-.75-1.11a.9.9,0,0,0-1,.82c-.11.68.18,1.29.67,1.39h.11C13,33,13.38,32.6,13.38,31.85Z"/><path d="M31.81,30.82H30.35v.81h1.42v.31c-.38,0-1,0-1.42,0v.94h1.54v.32c-.56,0-1.28,0-1.86,0V30.52H31.8"/><path d="M15,32.26h.19a.72.72,0,0,0,0,.23.77.77,0,0,0,1.1.39.65.65,0,0,0,.28-.43c0-.12-.17-.3-.3-.36a4.92,4.92,0,0,0-.77-.24.67.67,0,0,1-.54-.7.71.71,0,0,1,.59-.66.87.87,0,0,1,1.21.78h-.23a.65.65,0,0,0-.06-.21.79.79,0,0,0-1-.24.36.36,0,0,0,0,.65c.23.1.49.15.74.23.44.13.68.41.67.76s-.26.6-.7.75S14.83,33,15,32.26Z"/><path d="M22,33.14h-.39l0-.22c-.07-.19-.14-.5-.26-.53a2.36,2.36,0,0,0-1,0c-.12,0-.16.24-.25.42s-.14.33-.14.33H19.6c.31-.82.62-1.65.94-2.47a.29.29,0,0,1,.21-.15.37.37,0,0,1,.24.16C21.32,31.5,21.64,32.31,22,33.14Zm-1.64-1.08h.88l-.45-1.22Z"/><path d="M8.92,30.54v2.35h1.24v.3c-.43,0-1.05,0-1.54,0,0-.85,0-1.83,0-2.64"/></g><path d="M39.25,32.21l.19,0a.74.74,0,0,0,0,.23.78.78,0,0,0,1.11.38.61.61,0,0,0,.27-.42c0-.12-.17-.3-.3-.36a6.3,6.3,0,0,0-.77-.25.65.65,0,0,1-.53-.69.68.68,0,0,1,.58-.66.87.87,0,0,1,1.21.78H40.8a.65.65,0,0,0-.06-.21.77.77,0,0,0-1-.24.36.36,0,0,0,0,.65,6.29,6.29,0,0,0,.74.22c.45.14.68.41.67.77s-.26.6-.7.74S39.08,33,39.25,32.21Z"/><path d="M33.46,30.54v2.35H34.7v.3c-.43,0-1.05,0-1.54,0,0-.85,0-1.83,0-2.64"/><path d="M37.81,30.78H36.35v.81c.38,0,1,0,1.41,0v.3c-.37,0-1,0-1.42,0v.95h1.55v.31c-.57,0-1.28,0-1.87,0V30.48c.57,0,1.21,0,1.77,0"/><g id="layer1"><path id="path6538" class="cls-1" d="M16.79,43.1v1.49h1.73V43.1H19v3.57h-.47V45H16.79v1.67h-.46V43.1Z"/><path id="path6540" class="cls-1" d="M22,45.37a1.25,1.25,0,0,1-1.27,1.36,1.22,1.22,0,0,1-1.24-1.32,1.26,1.26,0,0,1,1.28-1.36A1.21,1.21,0,0,1,22,45.37m-2,0c0,.56.32,1,.78,1s.78-.42.78-1-.22-1-.77-1-.79.51-.79,1"/><path id="path6542" class="cls-1" d="M22.44,44.8c0-.26,0-.48,0-.69h.41l0,.41h0a.91.91,0,0,1,.81-.47.76.76,0,0,1,.73.52h0a1.08,1.08,0,0,1,.28-.34.88.88,0,0,1,.57-.18c.34,0,.85.22.85,1.12v1.51h-.45V45.22c0-.49-.18-.79-.56-.79a.61.61,0,0,0-.55.43.73.73,0,0,0,0,.23v1.59h-.45V45.14c0-.41-.18-.71-.54-.71a.64.64,0,0,0-.58.47.59.59,0,0,0,0,.23v1.55h-.45Z"/><path id="path6544" class="cls-1" d="M27,45.45a.84.84,0,0,0,.9.91,1.87,1.87,0,0,0,.73-.13l.08.34a2.07,2.07,0,0,1-.88.17,1.22,1.22,0,0,1-1.28-1.33A1.27,1.27,0,0,1,27.79,44a1.11,1.11,0,0,1,1.08,1.23,1.21,1.21,0,0,1,0,.23Zm1.4-.34a.68.68,0,0,0-.66-.77.79.79,0,0,0-.73.77Z"/><path id="path6546" class="cls-1" d="M29.94,45.53l-.38,1.15h-.49L30.31,43h.57l1.25,3.65h-.51l-.39-1.15Zm1.2-.37-.36-1a6.75,6.75,0,0,1-.19-.66h0c-.06.21-.12.44-.19.66l-.35,1Z"/><path id="path6548" class="cls-1" d="M32.6,44.06l.34,1.33c.08.29.15.56.2.83h0c.06-.26.15-.54.24-.83l.42-1.33h.4l.41,1.31c.1.31.17.59.23.85h0a6.31,6.31,0,0,1,.2-.84l.37-1.32h.47l-.84,2.62h-.43l-.41-1.25c-.09-.29-.16-.55-.23-.86h0a5.71,5.71,0,0,1-.24.86l-.42,1.25H32.9l-.79-2.62Z"/><path id="path6550" class="cls-1" d="M38.08,46.05a3,3,0,0,0,.05.63h-.44l0-.33h0a1,1,0,0,1-.8.39A.74.74,0,0,1,36,46c0-.64.56-1,1.57-1v0a.54.54,0,0,0-.59-.61,1.27,1.27,0,0,0-.68.2l-.11-.32a1.61,1.61,0,0,1,.86-.23c.8,0,1,.55,1,1.07Zm-.46-.71c-.52,0-1.11.08-1.11.59a.43.43,0,0,0,.45.46.65.65,0,0,0,.63-.44.4.4,0,0,0,0-.15Z"/><path id="path6552" class="cls-1" d="M38.86,44.06l.57,1.55c.06.17.12.38.17.54h0c0-.16.1-.36.16-.55l.52-1.54h.51l-.72,1.87a3.52,3.52,0,0,1-.9,1.57,1.43,1.43,0,0,1-.58.31l-.12-.4a1.31,1.31,0,0,0,.42-.24,1.47,1.47,0,0,0,.4-.53.51.51,0,0,0,0-.11.58.58,0,0,0,0-.13l-1-2.34Z"/><path id="path6554" class="cls-1" d="M41.88,44.38a.36.36,0,1,1-.35-.34.35.35,0,0,1,.35.34m-.62,0a.27.27,0,0,0,.27.28.26.26,0,0,0,.26-.27.26.26,0,0,0-.26-.28.27.27,0,0,0-.27.27m.21.18h-.08v-.34h.14a.14.14,0,0,1,.11,0,.08.08,0,0,1,0,.15h0a.12.12,0,0,1,.06.09c0,.05,0,.07,0,.08h-.08a.22.22,0,0,1,0-.08s0,0-.07,0h0Zm0-.19h0c.05,0,.08,0,.08,0s0,0-.07,0h0Z"/><path id="path6556" class="cls-1" d="M13.36,41.12h-3l-1.8,2.12.63,0v2.3l-.48.07a.22.22,0,0,0-.18.29.25.25,0,0,0,.24.18L9.14,46v.61l3,.55,2.39-.54V43.25l.65-.06Zm-.62,2.53.66-.06v.87l-.66.09ZM9.36,46.42v-.48l1.32-.22a.21.21,0,0,0,.2-.25c0-.23-.25-.19-.25-.19l-1.27.19V43.14l1.34-1.58,1.47,1.65v3.72Zm3.38-.69v-.9l.66-.09v.88Zm1.48-.26-.55.1V44.7l.55-.08Zm-.55-1v-.87l.54-.05v.84Z"/><path id="path6558" class="cls-1" d="M11.32,43.27a.8.8,0,0,0-.6-.29h0a.8.8,0,0,0-.58.32,1.15,1.15,0,0,0-.22.7v.06a1.18,1.18,0,0,0,.27.71.79.79,0,0,0,.6.29h0a.78.78,0,0,0,.57-.32,1.15,1.15,0,0,0,.23-.7V44a1.25,1.25,0,0,0-.27-.71m-.09,1.37a.63.63,0,0,1-.45.25h0a.65.65,0,0,1-.47-.23,1,1,0,0,1-.23-.6V44a1,1,0,0,1,.19-.6.61.61,0,0,1,.45-.25h0a.66.66,0,0,1,.47.23,1.15,1.15,0,0,1,.23.6V44a1,1,0,0,1-.19.6"/><path id="path6560" class="cls-1" d="M10.44,44a.75.75,0,0,1,.23-.66c-.25,0-.44.32-.42.67s.24.63.49.62h0a.74.74,0,0,1-.3-.63"/></g></svg>