<svg id="Layer_2" data-name="Layer 2" xmlns="http://www.w3.org/2000/svg" viewBox="0 0 50 50"><defs><style>.cls-1,.cls-3{fill:none;}.cls-1,.cls-2{stroke:#231f20;stroke-linecap:round;stroke-linejoin:round;stroke-width:0.2px;}.cls-2,.cls-4{fill:#231f20;}</style></defs><title>places</title><path class="cls-1" d="M14.52,27.42a14.33,14.33,0,0,0,3.24-.66c.48-.15.36.83.72,1.27s1.79-3.17,1.69-3.32a9.17,9.17,0,0,0-3.34-1.18c-.5,0,.71,1.46.33,1.62-.59.25-3,.86-4.21.06"/><path class="cls-2" d="M13,25.21c-.48-1.86-.24-3.05-1.47-2.78s-2.54.08-2.59.59c0,0,1,4.45,5.63,4.4A3.83,3.83,0,0,1,13,25.21Z"/><path class="cls-1" d="M14.67,26.77a4.15,4.15,0,0,0,1.58-.09"/><path class="cls-1" d="M16.69,26.56a1.18,1.18,0,0,0,.4-.13"/><path class="cls-2" d="M41.51,42.76a14.47,14.47,0,0,1-2.79,1.77c-.45.23.31.85.36,1.42s-3.49-1.05-3.52-1.22a8.84,8.84,0,0,1,1.59-3.16c.39-.32.5,1.54.88,1.39.6-.23,2.75-1.46,3.08-2.88"/><path class="cls-1" d="M41.11,40.08c-1-1.67-2-2.36-.88-3s1.89-1.7,2.28-1.37c0,0,2.34,3.93-1,7.08A3.86,3.86,0,0,0,41.11,40.08Z"/><path class="cls-1" d="M42.55,37.59a3.48,3.48,0,0,1,.21,2"/><path class="cls-1" d="M42.65,40.23a1,1,0,0,1-.16.56"/><path class="cls-2" d="M41.11,40.08a4.64,4.64,0,0,1,.4,2.68"/><path class="cls-1" d="M3.62,41a5.87,5.87,0,0,1-1.07.19c0-.08.25-.4.13-.53s-1.45-.94-1.24-1,.36-.06.32-.22-.37-.79-.22-.76.7.26.73.15.13-.45.2-.36.58.71.61.62a13.9,13.9,0,0,1-.2-1.48c.11,0,.38.35.47.26s.43-1,.51-.87.36.88.46.88.49-.33.5-.22-.35,1.46-.22,1.43.64-.67.7-.59,0,.36.15.37.78-.27.75-.14-.33.71-.25.78.45.12.32.2S5,40.57,5,40.69s.27.46.18.47S4,40.82,4,41s.18,1.25.12,1.25-.46.12-.45,0S3.62,41,3.62,41Z"/><polyline class="cls-1" points="1.5 22.5 13.85 16.89 13.85 10.79 8.11 10.79 8.09 19.5"/><polyline class="cls-1" points="2.31 22.13 2.31 13.39 8.1 13.39 5.21 10.79 2.31 13.39"/><polyline class="cls-1" points="8.1 10.79 11 8.2 13.85 10.79 15.27 2.09 17.87 14.44"/><polygon class="cls-1" points="3.91 18.62 6.41 18.62 6.41 20.27 3.91 21.41 3.91 18.62"/><line class="cls-1" x1="3.91" y1="19.43" x2="6.41" y2="19.43"/><line class="cls-1" x1="3.95" y1="20.24" x2="6.44" y2="20.24"/><polyline class="cls-1" points="3.91 18.62 3.91 16.22 6.44 16.22 6.41 18.62"/><polyline class="cls-1" points="4.49 18.62 4.49 16.84 5.83 16.84 5.83 18.62"/><rect class="cls-1" x="4.25" y="14.28" width="1.75" height="1.36"/><polyline class="cls-1" points="3.05 13.39 5.21 11.46 7.26 13.28"/><rect class="cls-1" x="4.79" y="12.43" width="0.84" height="0.59"/><polyline class="cls-1" points="4.94 13.49 4.94 13.9 5.47 13.9 5.47 13.44"/><polyline class="cls-1" points="2.8 13.49 2.8 13.9 3.33 13.9 3.33 13.44"/><polyline class="cls-1" points="3.87 13.49 3.87 13.9 4.4 13.9 4.4 13.44"/><polyline class="cls-1" points="6.04 13.47 6.04 13.87 6.57 13.87 6.57 13.41"/><polyline class="cls-1" points="7.13 13.47 7.13 13.87 7.66 13.87 7.66 13.41"/><circle class="cls-1" cx="5.44" cy="17.77" r="0.05"/><line class="cls-1" x1="4.92" y1="15.19" x2="5.49" y2="14.62"/><line class="cls-1" x1="5.4" y1="15.26" x2="5.57" y2="15.08"/><polygon class="cls-1" points="9.68 15.96 12.18 15.96 12.18 17.61 9.68 18.75 9.68 15.96"/><line class="cls-1" x1="9.68" y1="16.77" x2="12.18" y2="16.77"/><line class="cls-1" x1="9.71" y1="17.58" x2="12.21" y2="17.58"/><polyline class="cls-1" points="9.68 15.96 9.68 13.56 12.21 13.56 12.18 15.96"/><polyline class="cls-1" points="10.26 15.96 10.26 14.18 11.6 14.18 11.6 15.96"/><rect class="cls-1" x="10.02" y="11.62" width="1.75" height="1.36"/><polyline class="cls-1" points="8.82 10.79 10.97 8.86 13.03 10.69"/><rect class="cls-1" x="10.55" y="9.77" width="0.84" height="0.59"/><polyline class="cls-1" points="10.71 10.87 10.71 11.28 11.24 11.28 11.24 10.82"/><polyline class="cls-1" points="8.57 10.87 8.57 11.28 9.1 11.28 9.1 10.82"/><polyline class="cls-1" points="9.64 10.87 9.64 11.28 10.17 11.28 10.17 10.82"/><polyline class="cls-1" points="11.8 10.87 11.8 11.28 12.33 11.28 12.33 10.82"/><polyline class="cls-1" points="12.9 10.85 12.9 11.25 13.43 11.25 13.43 10.79"/><circle class="cls-1" cx="11.21" cy="15.12" r="0.05"/><line class="cls-1" x1="10.69" y1="12.54" x2="11.26" y2="11.97"/><line class="cls-1" x1="11.16" y1="12.6" x2="11.33" y2="12.43"/><polyline class="cls-1" points="15.85 4.34 17.14 4.34 16.53 8.07"/><polyline class="cls-1" points="14.89 4.34 13.6 4.34 14.25 8.29"/><line class="cls-1" x1="15.09" y1="5.48" x2="15.57" y2="5.48"/><line class="cls-1" x1="14.99" y1="6.32" x2="15.73" y2="6.32"/><line class="cls-1" x1="14.91" y1="7.07" x2="15.86" y2="7.07"/><line class="cls-1" x1="14.81" y1="7.8" x2="16.03" y2="7.8"/><line class="cls-1" x1="14.68" y1="8.57" x2="16.13" y2="8.57"/><line class="cls-1" x1="14.53" y1="9.45" x2="16.31" y2="9.45"/><line class="cls-1" x1="14.4" y1="10.26" x2="16.44" y2="10.26"/><line class="cls-1" x1="14.28" y1="11.13" x2="16.7" y2="11.13"/><line class="cls-1" x1="14.13" y1="12.05" x2="16.89" y2="12.05"/><line class="cls-1" x1="14.07" y1="12.9" x2="17.06" y2="12.9"/><line class="cls-1" x1="13.95" y1="13.78" x2="17.15" y2="13.78"/><line class="cls-1" x1="13.85" y1="14.76" x2="16.92" y2="14.76"/><line class="cls-1" x1="13.9" y1="15.69" x2="16.25" y2="15.69"/><polyline class="cls-1" points="5.77 11.3 5.74 1.36 6.48 1.36 6.48 1.81 9.64 1.81 9.64 1.36 10.44 1.36 10.44 8.57"/><path class="cls-1" d="M11,8.25V1.37h-.53c-.87,3.27-3.82,8-8.13,9.65"/><rect class="cls-1" x="6.73" y="2.7" width="2.84" height="2.86"/><line class="cls-1" x1="7.4" y1="2.7" x2="7.4" y2="5.57"/><polyline class="cls-1" points="6.48 1.36 7.4 1.36 7.4 1.81"/><rect class="cls-1" x="6.73" y="6.37" width="2.84" height="2.86"/><line class="cls-1" x1="7.4" y1="6.37" x2="7.4" y2="9.23"/><polyline class="cls-1" points="6.73 12.16 6.73 10.06 8.82 10.06"/><path class="cls-1" d="M11,1.37s.09,4.13,3.16,6.22"/><line class="cls-1" x1="12.21" y1="9.27" x2="12.21" y2="5.57"/><line class="cls-1" x1="13.46" y1="10.38" x2="13.46" y2="7.06"/><path class="cls-1" d="M2.31,13.39V7.58C5.57,5.86,5.74,1.37,5.74,1.37"/><line class="cls-1" x1="4.14" y1="6" x2="4.03" y2="11.85"/><path class="cls-1" d="M17.88,18s-.06-.74-1.38-.76-1.52.69-1.49.87.2.94,1.58.78S17.88,18,17.88,18Z"/><path class="cls-1" d="M18.87,18.09a.55.55,0,0,0-.52-.3.52.52,0,0,0-.46.3"/><path class="cls-1" d="M21.77,18.08s0-.85-1.43-.83-1.51.69-1.49.87.42.76,1.58.78C21.77,18.92,21.77,18.08,21.77,18.08Z"/><path class="cls-1" d="M17.06,17.29s-1.78-.68-2.41,0-.2,1.25,0,1.41a3.26,3.26,0,0,0,1.74.26"/><path class="cls-1" d="M19.6,17.35s1.58-.66,2.23-.3c.83.46.69,1,.58,1.14a1.81,1.81,0,0,1-1.55.68"/><path class="cls-1" d="M14.27,17.91a1.3,1.3,0,0,1-.22-1.59c.55-.83,1.63.27,2.1-.47s.4-1.37,2.36-1.48c1.8-.09,2.69.33,1.48,1-.37.19-.15.85.32.9.91.11,1.74-.41,2.18-.12s.76.89,0,1.33"/><path class="cls-1" d="M16.7,7.42s.37.57.65.25.35-1.38.82-1.13.3,1.29.71,1,.76-.27,1,.21,1,.14.82.5-.73.33-2.91.42a6.88,6.88,0,0,1-1.14,0"/><path class="cls-1" d="M5.63,2.94A1.77,1.77,0,0,1,4,2.32c-.4-.51-.94,0-1,.88,0,.74-.76.25-1.23.33-.73.12.06.89-.79,1.34s-.4.7-.4.7A1.48,1.48,0,0,0,2,5.48c.66-.41.53.24,1.07.09s.51-.5.86-.42a5.27,5.27,0,0,0,1.84.12"/><line class="cls-1" x1="7.4" y1="10.06" x2="7.4" y2="12.76"/><path class="cls-1" d="M33.27,27.62S32.06,22.93,32.18,23s3.75,1,3.75,1.14a38.24,38.24,0,0,1-1.64,3.67Z"/><path class="cls-1" d="M42.11,21.37A6.52,6.52,0,0,0,45,24.63a16,16,0,0,0-.78,3.51,9,9,0,0,1-1-.51,8.19,8.19,0,0,0-1.61-.72l.43-5.54-1.46.54a10,10,0,0,0-3,1.69,2.58,2.58,0,0,0-.64,1c0,.11.07,1.41.07,1.41"/><path class="cls-1" d="M46.22,29.06v-.55s1.27,0,1.7,0a1.44,1.44,0,0,1,.71.21l.82,1.48a23.89,23.89,0,0,1-2.5.23"/><path class="cls-1" d="M35.72,24.62a8.07,8.07,0,0,1,1.34,1"/><path class="cls-1" d="M35.84,24.34A7.94,7.94,0,0,1,37,24.8"/><path class="cls-1" d="M36.46,28.14l.3-1.53a3.89,3.89,0,0,1,.49-.76s3.82.85,4.43,1.06"/><polyline class="cls-1" points="44.25 28.14 44.59 28.29 44.43 29.08"/><path class="cls-1" d="M32.86,26l-.58,1.49,4.18.66-.08.91a39.85,39.85,0,0,0-4-.31l-.07-1.26"/><path class="cls-1" d="M36,30.46h-.07l-2-.05c-.91-2.08-1.54-1.63-1.54-1.63l-.17.14-.12.89a1.14,1.14,0,0,1,1.5.91l1.48.05h0"/><line class="cls-1" x1="33.89" y1="30.41" x2="33.56" y2="30.72"/><line class="cls-1" x1="36.38" y1="29.05" x2="36.55" y2="30.18"/><path class="cls-1" d="M37.25,25.85s-.5,3.69-.42,4.26l-.28.07"/><path class="cls-1" d="M45.53,28.93c-.19-1-.5-1.21-.5-1.21l.35-.19S46,27.74,46,29"/><path class="cls-1" d="M48.24,28.55a9,9,0,0,0,.08-1.44s-.37-.25-2.94.42"/><path class="cls-1" d="M45.06,27.89l-.27.05A3.85,3.85,0,0,0,44.94,29"/><path class="cls-1" d="M42.42,21.94c1.87,0,4.46,0,4.51,0s.24-.18.24-.31V15a.27.27,0,0,0-.28-.31c-.3,0-6.75-.08-6.83,0s-.18.12-.19.31c0,0-.09,6.58,0,6.73a.59.59,0,0,0,.6.3"/><path class="cls-1" d="M32.31,27.93a1.86,1.86,0,0,1-1.23.18c-.91-.06-1.43-.88-2.31-.94s-1.92.94-2.64.94A5.27,5.27,0,0,1,24.08,27a4.73,4.73,0,0,0,.08,1.28,5.73,5.73,0,0,0,2.15,1.12c.72,0,1.76-1,2.64-1s1.4.87,2.31,1l.84.06"/><path class="cls-1" d="M32.64,25.1a2.61,2.61,0,0,1-1.56.37c-.91-.06-1.43-.88-2.31-.94s-1.92.94-2.64.94a5.27,5.27,0,0,1-2.05-1.07,6.46,6.46,0,0,0,0,1.32,5.27,5.27,0,0,0,2.05,1.07c.72,0,1.76-1,2.64-.94s1.4.88,2.31.94a2.69,2.69,0,0,0,1.56-.35"/><path class="cls-1" d="M24.08,25.1s1.34,1.08,2.05,1.08,1.76-1,2.64-.95,1.4.88,2.31.95a3.27,3.27,0,0,0,1.63-.33"/><path class="cls-1" d="M24.17,27.7s1.33,1.08,2,1.08,1.76-1,2.64-1,1.4.88,2.31,1,1.17-.23,1.17-.23"/><path class="cls-1" d="M24.08,24.4s-.18-.46,1.64-.72,6.46-.33,6.46-.33"/><line class="cls-1" x1="24.91" y1="25.09" x2="24.84" y2="26.19"/><line class="cls-1" x1="25.34" y1="25.22" x2="25.26" y2="26.5"/><line class="cls-1" x1="26.13" y1="25.47" x2="26.13" y2="26.79"/><line class="cls-1" x1="26.83" y1="25.27" x2="26.83" y2="26.59"/><line class="cls-1" x1="27.51" y1="24.91" x2="27.51" y2="26.19"/><line class="cls-1" x1="28.24" y1="24.6" x2="28.24" y2="25.86"/><line class="cls-1" x1="29.13" y1="24.6" x2="29.13" y2="25.86"/><line class="cls-1" x1="30.09" y1="25.1" x2="30" y2="26.37"/><line class="cls-1" x1="30.74" y1="25.41" x2="30.74" y2="26.59"/><line class="cls-1" x1="31.58" y1="25.47" x2="31.58" y2="26.71"/><line class="cls-1" x1="32.43" y1="25.27" x2="32.43" y2="26.5"/><line class="cls-1" x1="24.91" y1="27.73" x2="24.91" y2="28.95"/><line class="cls-1" x1="25.26" y1="27.83" x2="25.26" y2="29.06"/><line class="cls-1" x1="26.96" y1="27.84" x2="26.96" y2="29.25"/><line class="cls-1" x1="27.59" y1="27.52" x2="27.59" y2="28.93"/><line class="cls-1" x1="28.24" y1="27.24" x2="28.24" y2="28.62"/><line class="cls-1" x1="28.99" y1="27.2" x2="28.95" y2="28.49"/><line class="cls-1" x1="29.71" y1="27.52" x2="29.71" y2="28.74"/><line class="cls-1" x1="30.42" y1="27.93" x2="30.42" y2="29.06"/><line class="cls-1" x1="31.86" y1="28.11" x2="31.86" y2="29.42"/><line class="cls-1" x1="25.11" y1="26.54" x2="25.11" y2="27.68"/><path class="cls-1" d="M24.85,28.81v2.54a.71.71,0,0,0,.69.11V29.2"/><line class="cls-1" x1="25.54" y1="27.91" x2="25.54" y2="26.64"/><path class="cls-1" d="M24.08,27s.08-.19,1-.08"/><line class="cls-1" x1="27.24" y1="26.37" x2="27.24" y2="27.7"/><path class="cls-1" d="M27.24,29.11v1.57a.49.49,0,0,0,.63.08v-2"/><line class="cls-1" x1="27.87" y1="27.38" x2="27.87" y2="26.08"/><line class="cls-1" x1="30.56" y1="26.67" x2="30.56" y2="27.93"/><path class="cls-1" d="M30.56,29.23v2.54a.54.54,0,0,0,.69.11V26.79"/><line class="cls-1" x1="26.13" y1="29.42" x2="26.13" y2="28.11"/><path class="cls-1" d="M25.54,30.57a1.78,1.78,0,0,0,.78.17,2.19,2.19,0,0,0,.91-.31"/><path class="cls-1" d="M27.87,30.18a2.44,2.44,0,0,1,1.15,0,9.06,9.06,0,0,1,1.54.79"/><path class="cls-1" d="M31.26,31.12a6.88,6.88,0,0,0,3.11-.34"/><path class="cls-1" d="M30,18.22a17.27,17.27,0,0,1,1,5.13"/><path class="cls-1" d="M28.41,14.87a9.48,9.48,0,0,1,1.17,2"/><path class="cls-1" d="M29.19,17.83a17.56,17.56,0,0,0-1.59-3"/><path class="cls-1" d="M30,23.35a18.87,18.87,0,0,0-.41-3.9"/><path class="cls-1" d="M33,11.71C31.87,13.5,29.12,19,28.84,23.45"/><path class="cls-1" d="M27.69,23.45S29.2,15.28,32.38,12"/><path class="cls-1" d="M35.17,30.72c-.09.07,0,.52.23.62s.17-.19.47.36c0,0,.08.17.14.32l.21.51a2,2,0,0,0,.92,1.17,3.11,3.11,0,0,0,2.57-.1,2.54,2.54,0,0,0,1.13-1.69c.17-.71,0-1.2.07-1.33s.41-.38.62-.3.28.14.43.63a5.08,5.08,0,0,0,1.11,1.85,2.33,2.33,0,0,0,2,.33c1.07-.21,1.39-.63,1.59-1.15a10.78,10.78,0,0,0,.34-2c0,.06.28,0,.52-.17,0,0,.09-.48-.09-.55s-3.94-.65-5.23.69a3.42,3.42,0,0,0-1.65.25s-1.64-1-4.63.35A.91.91,0,0,0,35.17,30.72Z"/><path class="cls-1" d="M36,32a6.12,6.12,0,0,0-1,.66c-.1.15,0,.62.3.63s.94-.78.94-.78"/><path class="cls-1" d="M46.91,31.61a5.14,5.14,0,0,0,.88.51c.14,0,.65-.33.26-.66s0-.12-1.17-.46"/><path class="cls-1" d="M36.4,31.06a2.32,2.32,0,0,0,.71,2.1c.41.28,2.09.7,2.91-.28a2.49,2.49,0,0,0,.47-1.16,1.2,1.2,0,0,0-1-1.45,4.91,4.91,0,0,0-2.61.25A1.22,1.22,0,0,0,36.4,31.06Z"/><path class="cls-1" d="M42.43,30.68s.31,1.54,1,1.87a2.45,2.45,0,0,0,2.34-.08,1.57,1.57,0,0,0,.73-1.19,4.09,4.09,0,0,0,0-.81,1.26,1.26,0,0,0-.29-.89.67.67,0,0,0-.37-.17,6.79,6.79,0,0,0-2.76.43C42.33,30.18,42.43,30.68,42.43,30.68Z"/><line class="cls-1" x1="38.4" y1="32.97" x2="39.69" y2="30.87"/><line class="cls-1" x1="39.15" y1="32.57" x2="39.72" y2="31.58"/><line class="cls-1" x1="44.44" y1="32.31" x2="45.73" y2="30.21"/><line class="cls-1" x1="45.19" y1="31.91" x2="45.76" y2="30.92"/><line class="cls-2" x1="33.97" y1="21.52" x2="33.59" y2="22.05"/><line class="cls-2" x1="33.26" y1="20.52" x2="32.57" y2="20.81"/><line class="cls-2" x1="33.19" y1="19.42" x2="32.5" y2="19.24"/><line class="cls-2" x1="33.62" y1="18.55" x2="33.06" y2="18.08"/><line class="cls-2" x1="34.41" y1="18.05" x2="34.16" y2="17.27"/><line class="cls-2" x1="35.51" y1="17.93" x2="35.51" y2="17.15"/><line class="cls-2" x1="36.44" y1="18.28" x2="36.91" y2="17.66"/><line class="cls-2" x1="37.03" y1="19" x2="37.66" y2="18.68"/><line class="cls-2" x1="37.07" y1="19.93" x2="37.76" y2="20.04"/><line class="cls-2" x1="36.91" y1="20.88" x2="37.52" y2="21.44"/><line class="cls-2" x1="36.19" y1="21.56" x2="36.59" y2="22.3"/><line class="cls-2" x1="35.06" y1="21.71" x2="35.06" y2="22.43"/><circle class="cls-1" cx="35.17" cy="19.82" r="1.45"/><path class="cls-3" d="M44.36,14.47a.1.1,0,0,0-.1.06.57.57,0,0,0,0,.22s0,.06,0,.07a.64.64,0,0,0,0-.09.35.35,0,0,0,0-.06s0,0,0,.05a.35.35,0,0,0,0-.12.1.1,0,0,1,0,0s0,0,0-.05h0S44.41,14.51,44.36,14.47Z"/><path class="cls-3" d="M44.48,14.43h0l0,0a.2.2,0,0,1,.12,0h0a0,0,0,0,1,0,0h0s0,.06,0,.06,0,0-.06,0h-.06s-.07,0-.1,0v0s0,0-.06,0"/><path class="cls-3" d="M43.39,14.82l0,0v0a.09.09,0,0,1,0,.07v0s0,.08,0,.09a.2.2,0,0,1,.17-.26"/><path class="cls-3" d="M43.5,14.72s0,0,.09,0h0s.06,0,.08,0h0l.06-.06h0a.13.13,0,0,1,.06,0A.19.19,0,0,0,43.5,14.72Z"/><path class="cls-3" d="M43.48,14.72a.08.08,0,0,0-.09-.05l0,0h0v0s0,0-.06.09,0-.15.14-.15h0s.07,0,.08,0v0a.05.05,0,0,1,0,.05"/><path class="cls-3" d="M43.31,14.72l.06-.07"/><path class="cls-3" d="M43.76,14.56a.26.26,0,0,0-.26.16.31.31,0,0,0-.07.34"/><path class="cls-3" d="M44.37,14.47a.31.31,0,0,1,.28.1"/><path class="cls-3" d="M43.28,14.94a.24.24,0,0,1,.19-.23"/><path class="cls-3" d="M43.35,14.61a.1.1,0,0,1,.16.07"/><path class="cls-1" d="M27.21,13.77a1.36,1.36,0,0,0-1.33.9,5.83,5.83,0,0,0-.09,3,8.71,8.71,0,0,0,.36,1,3.39,3.39,0,0,0,.27-1.21c0-.27-.14-.84-.14-.84s.38.42.26.63a4,4,0,0,0,.33-1.57s.19.3.16.45a2.06,2.06,0,0,0,.24-.81s.15.15.14.21S28,14.27,27.21,13.77Z"/><path class="cls-1" d="M30.36,15.06a7.25,7.25,0,0,1-.83-.16l.11.15a2.41,2.41,0,0,1-1.33-.24l.12.25s-.78-.31-.84-.59"/><path class="cls-1" d="M31.32,14.89a1.42,1.42,0,0,1,.06.35H31.2"/><path class="cls-1" d="M28.91,13.2a1,1,0,0,1,.4.06l-.22.18a2.49,2.49,0,0,1,1.66.33c-.06,0-.27.14-.27.14a1.55,1.55,0,0,1,.38.13"/><path class="cls-1" d="M25.71,15.24s-.17.27-.29.31a2.78,2.78,0,0,0-.08-.55s0,.79-.43,1.08l-.09-.41a4.59,4.59,0,0,1-.72,1.19,2.79,2.79,0,0,1,2.39-3.6"/><path class="cls-1" d="M29.14,11.3a3.39,3.39,0,0,0-1.93,2.47s.48.24,1.28-.33l-.17-.18a2,2,0,0,0,1.17-.55l-.18-.08a2.48,2.48,0,0,0,.94-.86"/><path class="cls-1" d="M26.88,13.77a1.09,1.09,0,0,0-1.17-.64s.08-.34.24-.39a1.56,1.56,0,0,0-.7.12s0-.24.14-.32-.65.18-.81,1.23c0,0,0-2.12,1.91-2,0,0-.23-.17-.1-.16s.91.19,1.07.61l.05-.28a1.11,1.11,0,0,1,.17.62"/><path class="cls-1" d="M24.58,13.77a9.61,9.61,0,0,0,.73-.94"/><path class="cls-1" d="M29,11.71a7.09,7.09,0,0,0-1.81,2.06,4.71,4.71,0,0,0-1.06,4.85"/><path class="cls-1" d="M27.48,13.82a5.2,5.2,0,0,1,3.14.73"/><path class="cls-1" d="M24.1,16.86a3.36,3.36,0,0,1,2.7-3.25"/><path class="cls-1" d="M25.15,12.23a1.42,1.42,0,0,1,2.16,1"/><path class="cls-1" d="M33.64,10.71s-.82.11-.27,1.8l.14-.23a8.93,8.93,0,0,0,.13,1.1c.06.13.29-.69.29-.69a6.49,6.49,0,0,0,.15,1.76c.19.4.29-.46.29-.46v2.28C34.65,16.61,36.81,11,33.64,10.71Z"/><path class="cls-1" d="M35.35,12.66l.25.23s0-.67.11-.69a1.81,1.81,0,0,0,.36,1.3l.13-.44A10,10,0,0,0,37,14.45s1.22-3.69-2.32-4.26"/><path class="cls-1" d="M34.37,16.27c1.31-3.56-.61-5.55-.61-5.55a1.71,1.71,0,0,1,1.68-.6s-.09-.42-.29-.51a1.26,1.26,0,0,1,.77.2l-.1-.41a1.57,1.57,0,0,1,.8,1.48s.11-2.93-2-2.45l.16-.21s-.54-.19-1.27.64l-.08-.34a1.32,1.32,0,0,0-.22.62"/><path class="cls-1" d="M34.08,10.42s2.81.43,2.87,4"/><path class="cls-1" d="M33.18,11.48a3.8,3.8,0,0,1-.92.52.65.65,0,0,1,.14-.26s-.32.4-1.51.15c0,0,.09-.23.21-.28a2.57,2.57,0,0,1-1.23.13s.13-.17.22-.17-.83.12-1,.67c0,0-.28-1.08.45-1.17l-.32-.16a1.14,1.14,0,0,1,.78-.37l-.21-.13s.44-.47,1.76-.24l-.18-.29h.52"/><path class="cls-1" d="M33.38,10.86s-3.13-1.16-4.24,1.23"/><path class="cls-1" d="M33.64,10.71a2.22,2.22,0,0,1-1.37-.54l.23-.07a2.7,2.7,0,0,1-1.36-.84h.31s-.5,0-1-1h.3a1.88,1.88,0,0,0-.89-.32,3.39,3.39,0,0,1,2.55.28A3,3,0,0,1,33.64,10.71Z"/><path class="cls-1" d="M33.64,10.71S32.21,7.55,30.1,8"/><path class="cls-1" d="M33.57,9.88s.69-1.9,2.72-.7"/><path class="cls-1" d="M36.62,10.88s-.59-1-.94-1.18"/><path class="cls-1" d="M27.87,22.85a.75.75,0,0,0,.53,0"/><path class="cls-1" d="M28.05,21.82s.08.07.36,0"/><path class="cls-1" d="M27.88,22.53a1.41,1.41,0,0,0,.37,0"/><path class="cls-1" d="M28.75,19.25a.75.75,0,0,0,.27,0"/><path class="cls-1" d="M30.91,22.53a.89.89,0,0,1-.49,0"/><path class="cls-1" d="M30.91,22a1.37,1.37,0,0,1-.37,0"/><path class="cls-1" d="M30.61,20.18a2.48,2.48,0,0,1-.52.06"/><path class="cls-1" d="M29.08,15.87a1.73,1.73,0,0,1-.33.12"/><path class="cls-1" d="M30.25,16.35s.34.24.37.17"/><path class="cls-1" d="M31.52,13.78a.68.68,0,0,0,.17.09"/><g id="Dc9YJu.tif"><path d="M41.63,19.41h-.17l-.31-1.56h0v1.55h-.29V17.33h.38a.2.2,0,0,1,.09.11c.08.34.14.67.21,1a.15.15,0,0,0,.05.07c.07-.35.15-.7.22-1.05,0-.12.06-.15.18-.14h.3v2.08H42V17.85h0Z"/><path d="M44,17.35c.23,0,.46,0,.69,0a.43.43,0,0,1,.38.43c0,.4,0,.79,0,1.19a.43.43,0,0,1-.43.43c-.21,0-.42,0-.63,0Zm.35.27v1.5c.32,0,.38,0,.38-.32s0-.57,0-.85S44.64,17.6,44.32,17.62Z"/><path d="M45.37,19.42v-2.1a5.43,5.43,0,0,1,.71,0,.38.38,0,0,1,.34.37,10.76,10.76,0,0,1,0,1.27c0,.26-.17.38-.44.41h-.61Zm.34-.31c.29.06.4,0,.4-.3v-.87c0-.29-.1-.36-.4-.31Z"/><path d="M42.56,17.33h.33a1,1,0,0,1,0,.17v1.34a.4.4,0,0,0,0,.19.31.31,0,0,0,.19.11.23.23,0,0,0,.16-.12.33.33,0,0,0,0-.2V17.34h.33a.62.62,0,0,1,0,.13V18.9a.5.5,0,0,1-.54.55.51.51,0,0,1-.55-.54Z"/><path d="M43,17h-.25V15.38a4.91,4.91,0,0,1,.55,0,.29.29,0,0,1,.25.28.54.54,0,0,1-.12.53s0,.09,0,.13c0,.2.12.39.18.59h-.25c-.06-.17-.11-.36-.17-.54s0-.12-.18-.07Zm0-.8c.11-.06.24-.08.26-.14a.5.5,0,0,0,0-.34c0-.05-.15-.06-.25-.09Z"/><path d="M41.6,17h-.23v-.69h-.31V17H40.8V15.4h.25V16h.31V15.4h.24Z"/><path d="M42.65,17c-.24,0-.25,0-.27-.19s-.09-.15-.21-.16-.15,0-.15.15a1.38,1.38,0,0,1,0,.2h-.24L42,15.41l.06,0c.27,0,.27,0,.32.25Zm-.33-.57-.11-.63h0l-.1.63Z"/><path d="M44.72,15.4h.7v.21H45V16l.33,0v.22H45v.47h.46V17h-.73Z"/><path d="M44.59,15.4c-.09.42-.17.83-.26,1.24,0,.05,0,.11,0,.17s0,.16-.16.16-.14-.06-.16-.15c-.09-.47-.19-.94-.29-1.41.24,0,.24,0,.28.17a6.63,6.63,0,0,0,.19.86l.19-1Z"/><path d="M42.42,20.5v.39a.32.32,0,0,1-.33.32c-.22,0-.36-.09-.37-.29a5.89,5.89,0,0,1,0-.84.31.31,0,0,1,.36-.29.33.33,0,0,1,.34.33Zm-.49,0v.38c0,.09,0,.16.13.14s.13-.08.13-.13c0-.25,0-.51,0-.76,0-.05-.08-.11-.13-.12s-.13,0-.13.13Z"/><path d="M45.56,20.23h-.08a.48.48,0,0,1-.12,0,.65.65,0,0,0,0-.16A.2.2,0,0,0,45.2,20s-.1.06-.1.1q0,.41,0,.81a.17.17,0,0,0,.1.1s.12-.05.13-.1a.83.83,0,0,0,0-.23l-.14,0v-.14h.37v.68l-.17-.08a.3.3,0,0,1-.36.07.37.37,0,0,1-.18-.34v-.69a.35.35,0,0,1,.67-.14A1.66,1.66,0,0,1,45.56,20.23Z"/><path d="M45.54,15.41c.25,0,.25,0,.32.17A2,2,0,0,0,46,16l.18-.56h.26a2.79,2.79,0,0,0-.3,1.55h-.29A2.86,2.86,0,0,0,45.54,15.41Z"/><path d="M41.28,20.71h.19a.41.41,0,0,1-.09.41.34.34,0,0,1-.36.07.28.28,0,0,1-.23-.3q0-.37,0-.75a.32.32,0,0,1,.34-.35.34.34,0,0,1,.35.35v.11h-.2a.47.47,0,0,0,0-.17.16.16,0,0,0-.12-.08s-.11.06-.11.09c0,.27,0,.55,0,.82,0,0,.08.1.12.1s.1-.06.12-.1A.56.56,0,0,0,41.28,20.71Z"/><path d="M44.06,19.82h.61V20h-.38v.37l.29,0v.18h-.29V21h.41v.18h-.64Z"/><path d="M46,20.37l.3,0v.18H46V21h.42v.17H45.8V19.83h.61V20H46Z"/><path d="M43.33,19.82h.22V21h.37v.18h-.59Z"/><path d="M42.63,19.82h.21V21h.37v.18h-.59Z"/></g><g id="SE2Nlb.tif"><path class="cls-4" d="M30.61,37.3h.3s0,.05,0,.07,0,.21,0,.32c0,.27,0,.53,0,.8a.32.32,0,0,0,0,.17.29.29,0,0,0,.16.13.72.72,0,0,0,.5,0,.54.54,0,0,0,.16-.1.25.25,0,0,0,.08-.18,2.35,2.35,0,0,0,0-.26v-.57l0-.39v0h.25s0,0,0,0,0,.22,0,.33v.77a1,1,0,0,1,0,.24.4.4,0,0,1-.17.27.66.66,0,0,1-.33.12h-.29a.66.66,0,0,1-.3-.07.49.49,0,0,1-.3-.43v-1a1.64,1.64,0,0,0,0-.22Z"/><path class="cls-4" d="M28,38.69l.1.07a.54.54,0,0,0,.46.1.29.29,0,0,0,.23-.22.24.24,0,0,0-.09-.24.59.59,0,0,0-.2-.12l-.29-.15a.38.38,0,0,1-.19-.27.47.47,0,0,1,.3-.55l.16,0a1,1,0,0,1,.46.07h0l-.08.23-.06,0a.65.65,0,0,0-.34-.1.24.24,0,0,0-.23.14.24.24,0,0,0,.09.31c.07.05.15.08.23.13l.26.14a.36.36,0,0,1,.19.31.5.5,0,0,1-.26.48.49.49,0,0,1-.31.09A1.2,1.2,0,0,1,28,39a.84.84,0,0,1-.14-.06s0,0,0,0A1.55,1.55,0,0,0,28,38.7Z"/><path class="cls-4" d="M29.27,39a.71.71,0,0,1,0-.15c0-.07,0-.13,0-.2v-1c0-.11,0-.22,0-.34v0c.32,0,.63,0,.94,0v.25a4.86,4.86,0,0,0-.66,0V38a5.91,5.91,0,0,0,.6,0v.25h0a3.13,3.13,0,0,0-.53,0s0,0,0,0v.52c0,.08,0,.15,0,.23s0,0,0,0h-.28Z"/></g><rect class="cls-1" x="24.61" y="35.4" width="7.87" height="3.93"/><path class="cls-1" d="M4.1,44.61a20.06,20.06,0,0,0,1.17-3.34s0-.18.16,0c.47.54,4.72,1.16,5.43.86.29-.12.13,0,.13,0S8.89,45.85,7.89,46Z"/><path class="cls-1" d="M11,42.48a8.59,8.59,0,0,0,2.41-.56l-.17,3.67L11,45.82a12.63,12.63,0,0,0,2.41-3.9"/><path class="cls-1" d="M6.29,41.67l.13-.76A7.43,7.43,0,0,0,8.3,42.08"/><path class="cls-1" d="M13.23,45.59l1.65-.1V42.08A13.33,13.33,0,0,1,13.23,45.59Z"/><path class="cls-1" d="M13.4,42.44a3.13,3.13,0,0,0,1.48-.36"/><path class="cls-1" d="M7.89,41.92v-1a3.55,3.55,0,0,0,2.16,1.32"/><circle class="cls-1" cx="13.9" cy="38.61" r="3.34"/><polyline class="cls-1" points="7.52 41.7 7.52 38.11 10.56 38.11"/><line class="cls-1" x1="8.1" y1="38.76" x2="10.26" y2="38.76"/><line class="cls-1" x1="8.1" y1="39.34" x2="10.26" y2="39.34"/><line class="cls-1" x1="8.1" y1="39.91" x2="10.26" y2="39.91"/><line class="cls-1" x1="8.1" y1="40.48" x2="10.26" y2="40.48"/><line class="cls-1" x1="8.1" y1="41.06" x2="10.26" y2="41.06"/><line class="cls-1" x1="8.62" y1="41.62" x2="10.26" y2="41.62"/><line class="cls-1" x1="10.77" y1="39.76" x2="10.77" y2="42.15"/><polygon class="cls-1" points="13.3 38.28 13.58 38.76 13.86 39.24 13.3 39.24 12.75 39.24 13.03 38.76 13.3 38.28"/><polygon class="cls-1" points="12.19 38.28 12.47 38.76 12.74 39.24 12.19 39.24 11.64 39.24 11.91 38.76 12.19 38.28"/><polygon class="cls-1" points="13.85 39.24 14.13 38.77 14.42 38.3 13.87 38.28 13.31 38.27 13.58 38.76 13.85 39.24"/><polygon class="cls-1" points="14.42 38.28 14.7 38.76 14.97 39.24 14.42 39.24 13.87 39.24 14.14 38.76 14.42 38.28"/><polygon class="cls-1" points="14.96 39.24 15.25 38.77 15.53 38.3 14.98 38.28 14.43 38.27 14.7 38.76 14.96 39.24"/><polygon class="cls-1" points="12.73 39.24 13.02 38.77 13.3 38.3 12.75 38.28 12.2 38.27 12.47 38.76 12.73 39.24"/><polyline class="cls-1" points="10.62 39.08 11.08 38.28 11.35 38.76 11.63 39.24 10.67 39.24"/><polygon class="cls-1" points="11.62 39.24 11.9 38.77 12.19 38.3 11.64 38.28 11.09 38.27 11.35 38.76 11.62 39.24"/><polygon class="cls-1" points="15.52 38.28 15.8 38.76 16.08 39.24 15.52 39.24 14.97 39.24 15.25 38.76 15.52 38.28"/><polygon class="cls-1" points="16.07 39.24 16.35 38.77 16.64 38.3 16.09 38.28 15.53 38.27 15.8 38.76 16.07 39.24"/><polygon class="cls-1" points="16.64 38.28 16.91 38.76 17.19 39.24 16.64 39.24 16.09 39.24 16.36 38.76 16.64 38.28"/><polygon class="cls-1" points="13.3 37.32 13.58 37.8 13.86 38.27 13.3 38.27 12.75 38.27 13.03 37.8 13.3 37.32"/><polygon class="cls-1" points="12.19 37.32 12.47 37.8 12.74 38.27 12.19 38.27 11.64 38.27 11.91 37.8 12.19 37.32"/><polygon class="cls-1" points="13.85 38.27 14.13 37.8 14.42 37.33 13.87 37.32 13.31 37.31 13.58 37.79 13.85 38.27"/><polygon class="cls-1" points="14.42 37.32 14.7 37.8 14.97 38.27 14.42 38.27 13.87 38.27 14.14 37.8 14.42 37.32"/><polygon class="cls-1" points="14.96 38.27 15.25 37.8 15.53 37.33 14.98 37.32 14.43 37.31 14.7 37.79 14.96 38.27"/><polygon class="cls-1" points="12.73 38.27 13.02 37.8 13.3 37.33 12.75 37.32 12.2 37.31 12.47 37.79 12.73 38.27"/><polyline class="cls-1" points="10.67 38.17 11.08 37.32 11.35 37.8 11.63 38.27 10.67 38.27"/><polygon class="cls-1" points="11.62 38.27 11.9 37.8 12.19 37.33 11.64 37.32 11.09 37.31 11.35 37.79 11.62 38.27"/><polygon class="cls-1" points="15.52 37.32 15.8 37.8 16.08 38.27 15.52 38.27 14.97 38.27 15.25 37.8 15.52 37.32"/><polygon class="cls-1" points="16.07 38.27 16.35 37.8 16.64 37.33 16.09 37.32 15.53 37.31 15.8 37.79 16.07 38.27"/><polygon class="cls-1" points="16.64 37.37 16.91 37.8 17.19 38.27 16.64 38.27 16.09 38.27 16.36 37.8 16.64 37.37"/><polygon class="cls-1" points="13.3 36.35 13.58 36.83 13.86 37.31 13.3 37.31 12.75 37.31 13.03 36.83 13.3 36.35"/><polygon class="cls-1" points="12.19 36.36 12.47 36.83 12.74 37.31 12.19 37.31 11.64 37.31 11.91 36.83 12.19 36.36"/><polygon class="cls-1" points="13.85 37.3 14.13 36.83 14.42 36.36 13.87 36.35 13.31 36.34 13.58 36.82 13.85 37.3"/><polygon class="cls-1" points="14.42 36.36 14.7 36.83 14.97 37.31 14.42 37.31 13.87 37.31 14.14 36.83 14.42 36.36"/><polygon class="cls-1" points="14.96 37.3 15.25 36.83 15.53 36.36 14.98 36.35 14.42 36.36 14.7 36.82 14.96 37.3"/><polyline class="cls-1" points="12.47 36.82 12.73 37.3 13.02 36.83 13.3 36.36 12.83 36.37 12 36.36"/><polyline class="cls-1" points="11.23 36.61 11.63 37.31 10.82 37.31"/><polyline class="cls-1" points="11.35 36.82 11.62 37.3 11.9 36.83 12.19 36.36 11.49 36.35"/><polygon class="cls-1" points="15.53 36.36 15.8 36.83 16.08 37.31 15.52 37.31 14.97 37.31 15.25 36.83 15.53 36.36"/><polyline class="cls-1" points="16.36 36.34 15.53 36.36 15.8 36.82 16.07 37.3 16.53 36.54"/><polygon class="cls-1" points="13.31 35.41 13.58 35.85 13.86 36.32 13.3 36.32 12.75 36.32 13.03 35.85 13.31 35.41"/><polyline class="cls-1" points="13.4 35.48 13.58 35.81 13.85 36.29 14.13 35.82 14.37 35.44"/><polygon class="cls-1" points="14.43 35.4 14.7 35.81 14.98 36.35 14.42 36.36 13.87 36.35 14.14 35.81 14.43 35.4"/><polyline class="cls-1" points="12.4 35.68 12.47 35.81 12.73 36.29"/><polyline class="cls-1" points="16.36 36.34 15.66 36.36 14.98 36.35 15.32 35.69"/><polygon class="cls-1" points="13.3 39.29 13.58 39.77 13.86 40.25 13.3 40.25 12.75 40.25 13.03 39.77 13.3 39.29"/><polygon class="cls-1" points="12.19 39.29 12.47 39.77 12.74 40.25 12.19 40.25 11.64 40.25 11.91 39.77 12.19 39.29"/><polygon class="cls-1" points="13.85 40.25 14.13 39.78 14.42 39.3 13.87 39.29 13.31 39.28 13.58 39.77 13.85 40.25"/><polygon class="cls-1" points="14.42 39.29 14.7 39.77 14.97 40.25 14.42 40.25 13.87 40.25 14.14 39.77 14.42 39.29"/><polygon class="cls-1" points="14.96 40.25 15.25 39.78 15.53 39.3 14.98 39.29 14.43 39.28 14.7 39.77 14.96 40.25"/><polygon class="cls-1" points="12.73 40.25 13.02 39.78 13.3 39.3 12.75 39.29 12.2 39.28 12.47 39.77 12.73 40.25"/><polyline class="cls-1" points="10.8 39.77 11.08 39.29 11.35 39.77 11.63 40.25 11.08 40.25"/><polygon class="cls-1" points="11.62 40.25 11.9 39.78 12.19 39.3 11.64 39.29 11.09 39.28 11.35 39.77 11.62 40.25"/><polygon class="cls-1" points="15.52 39.29 15.8 39.77 16.08 40.25 15.52 40.25 14.97 40.25 15.25 39.77 15.52 39.29"/><polygon class="cls-1" points="16.07 40.25 16.35 39.78 16.64 39.3 16.09 39.29 15.53 39.28 15.8 39.77 16.07 40.25"/><polyline class="cls-1" points="16.77 40.25 16.09 40.25 16.36 39.77 16.64 39.29 16.99 39.9"/><polygon class="cls-1" points="13.3 40.26 13.58 40.74 13.86 41.22 13.3 41.22 12.75 41.22 13.03 40.74 13.3 40.26"/><polyline class="cls-1" points="11.88 41.22 12.74 41.22 12.47 40.74 12.19 40.26 11.69 41.12"/><polygon class="cls-1" points="13.85 41.22 14.13 40.74 14.42 40.27 13.87 40.26 13.31 40.25 13.58 40.73 13.85 41.22"/><polygon class="cls-1" points="14.42 40.26 14.7 40.74 14.97 41.22 14.42 41.22 13.87 41.22 14.14 40.74 14.42 40.26"/><polygon class="cls-1" points="14.96 41.22 15.25 40.74 15.53 40.27 14.98 40.26 14.43 40.25 14.7 40.73 14.96 41.22"/><polygon class="cls-1" points="12.73 41.22 13.02 40.74 13.3 40.27 12.75 40.26 12.2 40.25 12.47 40.73 12.73 41.22"/><polyline class="cls-1" points="11.9 40.74 12.19 40.27 11.64 40.26 11.09 40.25"/><polyline class="cls-1" points="15.96 41.22 14.97 41.22 15.25 40.74 15.52 40.26 16.03 41.14"/><polyline class="cls-1" points="16.16 41.06 16.64 40.27 16.09 40.26 15.53 40.25 15.8 40.73"/><polyline class="cls-1" points="13.03 41.71 13.3 41.23 13.7 41.92"/><line class="cls-1" x1="12.19" y1="41.23" x2="12.4" y2="41.59"/><polyline class="cls-1" points="13.99 41.95 14.42 41.24 13.87 41.23 13.31 41.22 13.58 41.7"/><polyline class="cls-1" points="14.14 41.71 14.42 41.23 14.77 41.84"/><polyline class="cls-1" points="15.31 41.62 15.53 41.24 14.98 41.23 14.43 41.22 14.7 41.7"/><polyline class="cls-1" points="13.02 41.71 13.3 41.24 12.75 41.23 12.2 41.22"/><polyline class="cls-1" points="8.83 38.11 8.83 37.69 9.3 37.69 9.3 38.11"/><path class="cls-1" d="M7.61,36.61h2.86a1.45,1.45,0,0,1-1.6,1.08C7.57,37.54,7.61,36.61,7.61,36.61Z"/><line class="cls-1" x1="7.71" y1="36.96" x2="10.23" y2="36.96"/><polyline class="cls-1" points="8.48 36.51 8.48 35.93 9.03 35.94 9.64 35.95 9.64 36.51"/><line class="cls-1" x1="9.04" y1="35.34" x2="9.04" y2="35.94"/><polyline class="cls-1" points="4.1 37.37 9.41 30.92 13.02 34.38 14.34 32.8 16.09 35.15 16.91 34.38 17.19 34.53"/><polyline class="cls-1" points="12.07 33.65 10.62 35.38 9.44 34.72 8.48 35.27 7.89 34.99 6.92 35.23 6.41 34.57"/><polyline class="cls-1" points="13.46 33.92 13.9 34.44 14.43 34.18 14.89 34.72 15.48 34.34"/><line class="cls-1" x1="17.25" y1="35.46" x2="24.56" y2="39.28"/><line class="cls-1" x1="17.23" y1="34.87" x2="24.54" y2="38.7"/><line class="cls-1" x1="24.56" y1="42.44" x2="17.25" y2="38.61"/><polyline class="cls-1" points="16.99 37.32 16.64 37.33 16.91 37.79 17.18 38.27 17.25 31.58 24.57 35.4"/><line class="cls-1" x1="17.25" y1="32.09" x2="24.56" y2="35.91"/><polyline class="cls-1" points="16.33 40.91 17.89 45.07 14.97 45.07"/><polygon class="cls-1" points="17.53 35.64 17.53 38.12 17.84 38.27 17.84 37.77 18.25 37.98 18.25 36.02 17.53 35.64"/><polygon class="cls-1" points="18.64 36.22 18.64 38.7 18.95 38.85 18.95 38.35 19.36 38.56 19.36 36.6 18.64 36.22"/><polygon class="cls-1" points="19.74 36.8 19.74 39.28 20.06 39.43 20.06 38.92 20.47 39.14 20.47 37.17 19.74 36.8"/><polygon class="cls-1" points="20.89 37.42 20.89 39.9 21.2 40.06 21.2 39.55 21.61 39.77 21.61 37.8 20.89 37.42"/><polygon class="cls-1" points="22.03 37.96 22.03 40.45 22.34 40.6 22.34 40.09 22.75 40.31 22.75 38.34 22.03 37.96"/><polygon class="cls-1" points="23.09 38.56 23.09 41.04 23.41 41.2 23.41 40.69 23.82 40.91 23.82 38.94 23.09 38.56"/><polygon class="cls-1" points="17.74 32.37 17.74 34.85 18.05 35 18.05 34.5 18.46 34.71 18.46 32.75 17.74 32.37"/><polygon class="cls-1" points="18.85 32.95 18.85 35.43 19.16 35.58 19.16 35.08 19.57 35.29 19.57 33.33 18.85 32.95"/><polygon class="cls-1" points="19.95 33.52 19.95 36.01 20.27 36.16 20.27 35.65 20.68 35.87 20.68 33.9 19.95 33.52"/><polygon class="cls-1" points="21.09 34.15 21.09 36.63 21.41 36.78 21.41 36.28 21.82 36.49 21.82 34.53 21.09 34.15"/><polygon class="cls-1" points="22.24 34.69 22.24 37.17 22.55 37.33 22.55 36.82 22.96 37.04 22.96 35.07 22.24 34.69"/><polygon class="cls-1" points="23.3 35.29 23.3 37.77 23.62 37.92 23.62 37.42 24.03 37.63 24.03 35.67 23.3 35.29"/><line class="cls-1" x1="23.8" y1="40.89" x2="24.56" y2="41.29"/><line class="cls-1" x1="22.69" y1="40.25" x2="23.09" y2="40.47"/><line class="cls-1" x1="21.62" y1="39.77" x2="22.02" y2="39.99"/><line class="cls-1" x1="20.47" y1="39.13" x2="20.87" y2="39.35"/><line class="cls-1" x1="19.26" y1="38.52" x2="19.67" y2="38.74"/><line class="cls-1" x1="18.23" y1="37.96" x2="18.64" y2="38.18"/><line class="cls-1" x1="23.97" y1="37.62" x2="24.55" y2="37.92"/><line class="cls-1" x1="22.85" y1="36.98" x2="23.26" y2="37.2"/><line class="cls-1" x1="21.78" y1="36.5" x2="22.19" y2="36.72"/><line class="cls-1" x1="20.27" y1="35.65" x2="21.04" y2="36.08"/><line class="cls-1" x1="19.3" y1="35.15" x2="19.91" y2="35.51"/><line class="cls-1" x1="18.4" y1="34.69" x2="18.8" y2="34.91"/><polyline class="cls-1" points="18.23 39.12 18.23 42.08 18.8 42.44 18.8 39.42"/><polyline class="cls-1" points="19.26 39.66 19.26 42.08 18.8 42.44"/><polyline class="cls-1" points="21.1 40.61 21.1 43.56 21.67 43.93 21.67 40.91"/><polyline class="cls-1" points="22.13 41.15 22.13 43.56 21.67 43.93"/><path class="cls-1" d="M17.89,45.07a35.45,35.45,0,0,0,4.71-.18c3.35-.17.81-3.93,3.1-4.42s2.16-1,2.16-1"/><path class="cls-1" d="M29.1,39.35a3.62,3.62,0,0,1-2.38,1.89c-2.28.55.28,4.43-3,4.8s-14.36.6-15.78,0"/><rect class="cls-1" x="16.58" y="47.02" width="1.78" height="0.68" rx="0.34" ry="0.34"/><rect class="cls-1" x="15.28" y="47.02" width="0.9" height="0.34" rx="0.17" ry="0.17"/><rect class="cls-1" x="14.5" y="47.7" width="0.94" height="0.47" rx="0.23" ry="0.23"/><path class="cls-1" d="M11.52,41,11,42.17v3.65L7.89,46v2.24c2.16.71,7.37.39,10.21.12,2.66-.24,2.28-.29,5.93-.47s1.42-3.65,3.34-4.43c1.44-.59,2.43-.5,3.14-1.77A7.93,7.93,0,0,0,31,39.34"/><line class="cls-1" x1="16.94" y1="42.54" x2="14.88" y2="42.54"/><line class="cls-1" x1="17.25" y1="43.37" x2="14.88" y2="43.37"/><line class="cls-1" x1="17.53" y1="44.2" x2="14.88" y2="44.2"/><rect class="cls-1" x="8.62" y="46.73" width="0.82" height="0.45" rx="0.23" ry="0.23"/><rect class="cls-1" x="9.57" y="47.67" width="1.38" height="0.53" rx="0.26" ry="0.26"/><rect class="cls-1" x="22.85" y="46.41" width="0.6" height="0.33" rx="0.16" ry="0.16"/><rect class="cls-1" x="23.67" y="46.9" width="1.18" height="0.57" rx="0.28" ry="0.28"/><rect class="cls-1" x="27.31" y="41.32" width="1.26" height="0.43" rx="0.22" ry="0.22" transform="translate(-13.07 12.83) rotate(-21.08)"/><rect class="cls-1" x="27.06" y="42.37" width="0.73" height="0.47" rx="0.23" ry="0.23" transform="translate(-13.49 12.72) rotate(-21.08)"/><rect class="cls-1" x="20.6" y="47.19" width="0.78" height="0.28" rx="0.14" ry="0.14"/><rect class="cls-1" x="12.07" y="46.73" width="1.63" height="0.96" rx="0.48" ry="0.48"/><rect class="cls-1" x="28.72" y="41.64" width="0.94" height="0.67" rx="0.33" ry="0.33" transform="translate(-15.38 16.92) rotate(-25.84)"/><rect class="cls-1" x="45.72" y="22.21" width="0.71" height="0.71"/><rect class="cls-1" x="45.72" y="23.4" width="0.71" height="0.71"/><rect class="cls-1" x="45.72" y="24.57" width="0.71" height="0.71"/><rect class="cls-1" x="45.72" y="25.79" width="0.71" height="0.71"/><line class="cls-1" x1="45.38" y1="22.01" x2="45.38" y2="27.53"/><line class="cls-1" x1="46.77" y1="22.03" x2="46.77" y2="27.21"/><polyline class="cls-1" points="46.44 27.28 46.44 26.99 45.72 26.99 45.72 27.44"/><rect class="cls-1" x="43.32" y="22.21" width="0.71" height="0.71"/><line class="cls-1" x1="42.98" y1="22.03" x2="42.98" y2="22.85"/><line class="cls-1" x1="44.37" y1="22.01" x2="44.37" y2="24.27"/><polyline class="cls-1" points="43.32 23.3 44.03 23.3 44.03 24.02"/><line class="cls-1" x1="44.37" y1="23.14" x2="45.38" y2="23.14"/><line class="cls-1" x1="45.38" y1="24.4" x2="44.56" y2="24.4"/><line class="cls-1" x1="45.38" y1="25.56" x2="44.74" y2="25.56"/><line class="cls-1" x1="45.38" y1="26.73" x2="44.45" y2="26.73"/></svg>